<svg width="3837" height="1800" viewBox="0 0 3837 1800" fill="none" xmlns="http://www.w3.org/2000/svg">
<path d="M1252 692L2323.5 1763.5H2218.5L1147 692H1252Z" fill="#D7D7D7"/>
<path d="M0.9375 825.938H105.938L239.875 959.875L507.75 1227.75L1043.5 1763.5H938.5L402.75 1227.75L134.875 959.875L0.9375 825.938Z" fill="#D7D7D7"/>
<path d="M2021.26 1217.13H87.0006L161.247 1291.37H2095.5L2021.26 1217.13Z" fill="#D7D7D7"/>
<path d="M1127.8 806H208L494.201 1093H1414L1127.8 806Z" fill="#D7D7D7" stroke="black" stroke-width="4" stroke-linejoin="round"/>
<path d="M1127.8 672H208L494.201 959H1414L1127.8 672Z" fill="white" stroke="#5B5B5B" stroke-width="4" stroke-linejoin="round"/>
<path d="M1127.8 538H208L494.201 825H1414L1127.8 538Z" fill="url(#paint0_linear_330_723)" stroke="black" stroke-width="4" stroke-linejoin="round"/>
<path d="M1127.8 404H208L494.201 691H1414L1127.8 404Z" fill="white" stroke="#5B5B5B" stroke-width="4" stroke-linejoin="round"/>
<path d="M1127.8 270H208L494.201 557H1414L1127.8 270Z" fill="url(#paint1_linear_330_723)" stroke="black" stroke-width="4" stroke-linejoin="round"/>
<path d="M1127.8 136H208L494.201 423H1414L1127.8 136Z" fill="url(#paint2_linear_330_723)" stroke="black" stroke-width="4" stroke-linejoin="round"/>
<path d="M1127.8 2H208L494.201 289H1414L1127.8 2Z" stroke="black" stroke-width="4" stroke-linejoin="round"/>
<path d="M205 278.919L494.201 568.928" stroke="#D7D7D7" stroke-width="2"/>
<path d="M205 290.035L494.201 580.043" stroke="#D7D7D7" stroke-width="2"/>
<path d="M205 301.15L494.201 591.158" stroke="#D7D7D7" stroke-width="2"/>
<path d="M205 312.265L494.201 602.274" stroke="#D7D7D7" stroke-width="2"/>
<path d="M205 323.381L494.201 613.389" stroke="#D7D7D7" stroke-width="2"/>
<path d="M205 334.496L494.201 624.504" stroke="#D7D7D7" stroke-width="2"/>
<path d="M205 345.611L494.201 635.62" stroke="#D7D7D7" stroke-width="2"/>
<path d="M205 356.727L494.201 646.735" stroke="#D7D7D7" stroke-width="2"/>
<path d="M205 367.842L494.201 657.85" stroke="#D7D7D7" stroke-width="2"/>
<path d="M205 378.957L494.201 668.965" stroke="#D7D7D7" stroke-width="2"/>
<path d="M205 390.072L494.201 680.081" stroke="#D7D7D7" stroke-width="2"/>
<path d="M205 546.919L494.201 836.928" stroke="#D7D7D7" stroke-width="2"/>
<path d="M205 558.035L494.201 848.043" stroke="#D7D7D7" stroke-width="2"/>
<path d="M205 569.15L494.201 859.158" stroke="#D7D7D7" stroke-width="2"/>
<path d="M205 580.265L494.201 870.274" stroke="#D7D7D7" stroke-width="2"/>
<path d="M205 591.381L494.201 881.389" stroke="#D7D7D7" stroke-width="2"/>
<path d="M205 602.496L494.201 892.504" stroke="#D7D7D7" stroke-width="2"/>
<path d="M205 613.611L494.201 903.62" stroke="#D7D7D7" stroke-width="2"/>
<path d="M205 624.727L494.201 914.735" stroke="#D7D7D7" stroke-width="2"/>
<path d="M205 635.842L494.201 925.85" stroke="#D7D7D7" stroke-width="2"/>
<path d="M205 646.957L494.201 936.965" stroke="#D7D7D7" stroke-width="2"/>
<path d="M205 658.072L494.201 948.081" stroke="#D7D7D7" stroke-width="2"/>
<path d="M205 680.919L494.201 970.928" stroke="#D7D7D7" stroke-width="2"/>
<path d="M205 692.035L494.201 982.043" stroke="#D7D7D7" stroke-width="2"/>
<path d="M205 703.15L494.201 993.158" stroke="#D7D7D7" stroke-width="2"/>
<path d="M205 714.265L494.201 1004.27" stroke="#D7D7D7" stroke-width="2"/>
<path d="M205 725.381L494.201 1015.39" stroke="#D7D7D7" stroke-width="2"/>
<path d="M205 736.496L494.201 1026.5" stroke="#D7D7D7" stroke-width="2"/>
<path d="M205 747.611L494.201 1037.62" stroke="#D7D7D7" stroke-width="2"/>
<path d="M205 758.727L494.201 1048.73" stroke="#D7D7D7" stroke-width="2"/>
<path d="M205 769.842L494.201 1059.85" stroke="#D7D7D7" stroke-width="2"/>
<path d="M205 780.957L494.201 1070.97" stroke="#D7D7D7" stroke-width="2"/>
<path d="M205 792.072L494.201 1082.08" stroke="#D7D7D7" stroke-width="2"/>
<path d="M1999.27 1614.04L2005.98 1620.82L2014.79 1615.58L2023.66 1610.21L2018.21 1619.03L2012.88 1627.79L2019.6 1634.57L2046.57 1617.04L2041.09 1611.51L2032.31 1617.48L2023.12 1623.86L2029.08 1614.22L2034.73 1605.08L2029.19 1599.49L2019.9 1604.94L2010.2 1610.82L2016.7 1601.71L2022.76 1592.99L2017.03 1587.21L1999.27 1614.04ZM2036.78 1651.92L2042.95 1658.15L2065.33 1635.99L2060.23 1630.84C2057.2 1632.51 2054.79 1631.8 2051.27 1628.44L2047.88 1631.8L2052.44 1636.4L2036.78 1651.92ZM2055.35 1671.44C2060.77 1676.91 2067.16 1678.06 2071.19 1674.07C2073.9 1671.38 2074.21 1667.97 2072.16 1664.3C2075.39 1666.04 2078.58 1665.74 2080.98 1663.36C2084.75 1659.62 2083.7 1653.76 2078.41 1648.42C2072.9 1642.86 2066.86 1642 2061.49 1645.92L2067.32 1651.81C2069.65 1650.07 2072.04 1650.11 2074.03 1652.13C2075.8 1653.92 2075.92 1656.21 2074.32 1657.79C2072.69 1659.41 2070.65 1659.27 2068.85 1657.45L2066.63 1655.21L2062.86 1658.94L2065.14 1661.25C2067.13 1663.26 2067.19 1665.42 2065.33 1667.26C2063.41 1669.16 2061.03 1669.12 2059.1 1667.17C2056.98 1665.02 2057.08 1662.26 2059.36 1659.37L2053.53 1653.49C2048.92 1659.32 2049.59 1665.62 2055.35 1671.44ZM2073.69 1689.2L2080.02 1695.59L2097.99 1677.8L2105.31 1685.18L2109.72 1680.81L2088.7 1659.58L2084.28 1663.95L2091.66 1671.4L2073.69 1689.2ZM2089.79 1705.45L2096.15 1711.88L2105.36 1702.76L2112.77 1710.24L2103.56 1719.36L2109.93 1725.79L2132.31 1703.62L2125.94 1697.2L2117.15 1705.9L2109.74 1698.42L2118.53 1689.71L2112.17 1683.29L2089.79 1705.45ZM2129.49 1746.31C2135.22 1752.1 2141.7 1753.02 2145.96 1748.81C2150.98 1743.84 2147.09 1737.8 2144.19 1732.89C2142.33 1729.67 2140.88 1726.92 2142.54 1725.27C2143.79 1724.04 2145.76 1724.24 2147.59 1726.1C2149.87 1728.4 2150.31 1731.2 2148.38 1734.12L2154.34 1740.13C2158.18 1734.48 2157.1 1727.89 2151.27 1722.01C2145.57 1716.25 2139.47 1715.65 2135.38 1719.7C2130.55 1724.48 2134.02 1730.17 2136.89 1734.98C2138.97 1738.43 2140.74 1741.37 2138.89 1743.2C2137.38 1744.69 2135.25 1744.33 2133.26 1742.32C2130.88 1739.92 2130.36 1737.53 2132.47 1734.23L2126.52 1728.22C2122.29 1733.99 2123.56 1740.33 2129.49 1746.31ZM2147.22 1763.45L2153.55 1769.85L2171.53 1752.05L2178.84 1759.44L2183.25 1755.07L2162.23 1733.84L2157.81 1738.21L2165.19 1745.66L2147.22 1763.45Z" fill="black"/>
<path d="M732.126 1632.2L738.331 1638.4L760.605 1616.13L755.482 1611.01C752.459 1612.69 750.04 1611.99 746.508 1608.65L743.136 1612.02L747.718 1616.61L732.126 1632.2ZM752.327 1652.4L758.245 1658.32L762.477 1654.09L765.436 1657.05L769.478 1653L766.518 1650.04L780.519 1636.04L772.914 1628.44L749.177 1632.64L745.104 1636.71L756.559 1648.17L752.327 1652.4ZM754.363 1637.89L769.828 1635.03L760.632 1644.16L754.363 1637.89ZM769.815 1669.89L776.179 1676.25L794.062 1658.37L801.413 1665.72L805.804 1661.33L784.675 1640.2L780.284 1644.59L787.698 1652.01L769.815 1669.89ZM785.991 1686.06L792.386 1692.46L801.55 1683.29L808.996 1690.74L799.832 1699.9L806.228 1706.3L828.502 1684.03L822.106 1677.63L813.356 1686.38L805.91 1678.94L814.66 1670.19L808.264 1663.79L785.991 1686.06ZM825.888 1726.72C831.648 1732.48 838.139 1733.38 842.371 1729.14C847.367 1724.15 843.453 1718.13 840.526 1713.23C838.648 1710.02 837.184 1707.28 838.839 1705.63C840.08 1704.39 842.053 1704.58 843.898 1706.42C846.189 1708.71 846.635 1711.51 844.726 1714.44L850.708 1720.42C854.526 1714.76 853.413 1708.17 847.558 1702.32C841.83 1696.59 835.721 1696.02 831.648 1700.09C826.843 1704.9 830.343 1710.56 833.239 1715.37C835.339 1718.8 837.121 1721.73 835.275 1723.57C833.78 1725.07 831.648 1724.72 829.643 1722.72C827.257 1720.33 826.716 1717.94 828.816 1714.63L822.834 1708.65C818.633 1714.44 819.938 1720.77 825.888 1726.72ZM843.709 1743.78L850.073 1750.15L867.956 1732.26L875.307 1739.61L879.698 1735.22L858.569 1714.09L854.178 1718.49L861.592 1725.9L843.709 1743.78Z" fill="black"/>
<path d="M1260.4 1134H1274.5V1131.81H1263.07V1124.28H1271.2V1122.12H1263.07V1115.19H1274.5V1113H1260.4V1134ZM1278.1 1134H1280.65V1125.54L1280.44 1116.69L1285.9 1125.54L1291.3 1134H1294.24V1113H1291.72L1291.75 1121.52L1291.93 1130.4L1286.47 1121.52L1281.01 1113H1278.1V1134ZM1304.38 1134H1307.05V1115.19H1314.22V1113H1297.15V1115.19H1304.38V1134ZM1317.12 1134H1319.79V1124.64H1326.93C1328.79 1124.64 1329.57 1125.42 1329.63 1127.37C1329.69 1131.18 1330.05 1132.68 1330.59 1134H1333.47C1332.81 1132.38 1332.33 1130.52 1332.21 1127.46C1332.12 1125.24 1331.46 1124.01 1329.6 1123.59C1331.7 1122.87 1333.02 1121.13 1333.02 1118.61C1333.02 1114.98 1330.59 1113 1326.81 1113H1317.12V1134ZM1326.66 1115.19C1329.03 1115.19 1330.41 1116.48 1330.41 1118.88C1330.41 1121.31 1329.03 1122.57 1326.66 1122.57H1319.79V1115.19H1326.66ZM1335.09 1134H1337.79L1339.74 1128.57H1348.77L1350.69 1134H1353.6L1345.89 1113H1342.77L1335.09 1134ZM1341 1125.06L1344.24 1115.76L1347.51 1125.06L1348.02 1126.5H1340.49L1341 1125.06ZM1356.49 1134H1359.04V1125.54L1358.83 1116.69L1364.29 1125.54L1369.69 1134H1372.63V1113H1370.11L1370.14 1121.52L1370.32 1130.4L1364.86 1121.52L1359.4 1113H1356.49V1134ZM1394.72 1121.1C1394.06 1115.64 1390.58 1112.7 1385.78 1112.7C1380.29 1112.7 1376.54 1116.48 1376.54 1123.5C1376.54 1130.52 1380.32 1134.3 1385.78 1134.3C1390.61 1134.3 1394.09 1131.24 1394.72 1125.63H1392.14C1391.54 1129.8 1389.17 1132.08 1385.78 1132.08C1381.79 1132.08 1379.21 1129.05 1379.21 1123.5C1379.21 1117.92 1381.76 1114.89 1385.78 1114.89C1389.14 1114.89 1391.54 1117.08 1392.14 1121.1H1394.72ZM1398.56 1134H1412.66V1131.81H1401.23V1124.28H1409.36V1122.12H1401.23V1115.19H1412.66V1113H1398.56V1134Z" fill="#626262"/>
<path d="M2058.73 1450.16L2068.72 1460.11L2070.26 1458.56L2062.17 1450.49L2067.48 1445.15L2073.24 1450.89L2074.77 1449.36L2069.01 1443.62L2073.9 1438.72L2082 1446.78L2083.54 1445.23L2073.55 1435.28L2058.73 1450.16ZM2071.27 1462.65L2073.07 1464.44L2079.04 1458.45L2085.14 1452.03L2082.76 1462.16L2080.62 1471.96L2082.7 1474.04L2097.52 1459.16L2095.74 1457.38L2089.74 1463.44L2083.6 1469.86L2086 1459.71L2088.15 1449.82L2086.09 1447.77L2071.27 1462.65ZM2089.89 1481.2L2091.78 1483.08L2105.06 1469.76L2110.14 1474.82L2111.68 1473.27L2099.59 1461.22L2098.04 1462.77L2103.16 1467.87L2089.89 1481.2ZM2098.91 1490.19L2100.8 1492.07L2107.41 1485.44L2112.47 1490.48C2113.78 1491.79 2113.79 1492.9 2112.45 1494.32C2109.81 1497.06 2109 1498.38 2108.45 1499.7L2110.49 1501.73C2111.17 1500.11 2112.14 1498.46 2114.22 1496.21C2115.72 1494.57 2116.12 1493.23 2115.1 1491.62C2117.09 1492.59 2119.26 1492.29 2121.04 1490.51C2123.6 1487.94 2123.27 1484.82 2120.6 1482.15L2113.73 1475.31L2098.91 1490.19ZM2118.94 1483.6C2120.62 1485.27 2120.69 1487.16 2119 1488.86C2117.28 1490.58 2115.42 1490.5 2113.74 1488.82L2108.87 1483.98L2114.08 1478.75L2118.94 1483.6ZM2111.64 1502.87L2113.56 1504.78L2118.77 1502.31L2125.17 1508.68L2122.69 1513.88L2124.76 1515.94L2134.12 1495.62L2131.9 1493.42L2111.64 1502.87ZM2122.14 1500.71L2131 1496.41L2126.75 1505.31L2126.1 1506.69L2120.76 1501.37L2122.14 1500.71ZM2126.8 1517.98L2128.61 1519.78L2134.58 1513.79L2140.68 1507.37L2138.3 1517.49L2136.16 1527.3L2138.24 1529.37L2153.06 1514.49L2151.27 1512.72L2145.28 1518.77L2139.14 1525.19L2141.54 1515.05L2143.69 1505.16L2141.63 1503.1L2126.8 1517.98ZM2162.99 1535.82C2166.38 1531.49 2165.99 1526.95 2162.59 1523.56C2158.7 1519.69 2153.37 1519.72 2148.42 1524.69C2143.46 1529.66 2143.47 1535.01 2147.34 1538.86C2150.76 1542.27 2155.39 1542.56 2159.79 1539.03L2157.96 1537.21C2154.6 1539.74 2151.31 1539.68 2148.91 1537.29C2146.08 1534.47 2146.39 1530.51 2150.31 1526.57C2154.25 1522.62 2158.19 1522.28 2161.04 1525.11C2163.42 1527.48 2163.57 1530.73 2161.16 1534L2162.99 1535.82ZM2156.61 1547.67L2166.6 1557.62L2168.14 1556.07L2160.04 1548.01L2165.36 1542.67L2171.12 1548.41L2172.64 1546.88L2166.88 1541.14L2171.77 1536.23L2179.87 1544.3L2181.42 1542.75L2171.43 1532.8L2156.61 1547.67Z" fill="#626262"/>
<path d="M3332.4 1055H3335.07V1045.46H3343.08V1043.3H3335.07V1036.19H3346.38V1034H3332.4V1055ZM3349.69 1055H3352.36V1034H3349.69V1055ZM3357.16 1055H3359.83V1045.46H3367.84V1043.3H3359.83V1036.19H3371.14V1034H3357.16V1055ZM3380.07 1055H3382.74V1036.19H3389.91V1034H3372.84V1036.19H3380.07V1055ZM3392.81 1055H3395.48V1045.34H3405.56V1055H3408.23V1034H3405.56V1043.15H3395.48V1034H3392.81V1055ZM3417.87 1055H3420.57L3422.52 1049.57H3431.55L3433.47 1055H3436.38L3428.67 1034H3425.55L3417.87 1055ZM3423.78 1046.06L3427.02 1036.76L3430.29 1046.06L3430.8 1047.5H3423.27L3423.78 1046.06ZM3453.02 1034H3450.32L3447.11 1042.94L3443.84 1052.09L3440.6 1042.94L3437.42 1034H3434.51L3442.22 1055H3445.34L3453.02 1034ZM3455.92 1055H3470.02V1052.81H3458.59V1045.28H3466.72V1043.12H3458.59V1036.19H3470.02V1034H3455.92V1055ZM3332.4 1082H3346.5V1079.81H3335.07V1072.28H3343.2V1070.12H3335.07V1063.19H3346.5V1061H3332.4V1082ZM3350.1 1082H3352.65V1073.54L3352.44 1064.69L3357.9 1073.54L3363.3 1082H3366.24V1061H3363.72L3363.75 1069.52L3363.93 1078.4L3358.47 1069.52L3353.01 1061H3350.1V1082ZM3376.38 1082H3379.05V1063.19H3386.22V1061H3369.15V1063.19H3376.38V1082ZM3389.12 1082H3391.79V1072.64H3398.93C3400.79 1072.64 3401.57 1073.42 3401.63 1075.37C3401.69 1079.18 3402.05 1080.68 3402.59 1082H3405.47C3404.81 1080.38 3404.33 1078.52 3404.21 1075.46C3404.12 1073.24 3403.46 1072.01 3401.6 1071.59C3403.7 1070.87 3405.02 1069.13 3405.02 1066.61C3405.02 1062.98 3402.59 1061 3398.81 1061H3389.12V1082ZM3398.66 1063.19C3401.03 1063.19 3402.41 1064.48 3402.41 1066.88C3402.41 1069.31 3401.03 1070.57 3398.66 1070.57H3391.79V1063.19H3398.66ZM3407.09 1082H3409.79L3411.74 1076.57H3420.77L3422.69 1082H3425.6L3417.89 1061H3414.77L3407.09 1082ZM3413 1073.06L3416.24 1063.76L3419.51 1073.06L3420.02 1074.5H3412.49L3413 1073.06ZM3428.49 1082H3431.04V1073.54L3430.83 1064.69L3436.29 1073.54L3441.69 1082H3444.63V1061H3442.11L3442.14 1069.52L3442.32 1078.4L3436.86 1069.52L3431.4 1061H3428.49V1082ZM3466.72 1069.1C3466.06 1063.64 3462.58 1060.7 3457.78 1060.7C3452.29 1060.7 3448.54 1064.48 3448.54 1071.5C3448.54 1078.52 3452.32 1082.3 3457.78 1082.3C3462.61 1082.3 3466.09 1079.24 3466.72 1073.63H3464.14C3463.54 1077.8 3461.17 1080.08 3457.78 1080.08C3453.79 1080.08 3451.21 1077.05 3451.21 1071.5C3451.21 1065.92 3453.76 1062.89 3457.78 1062.89C3461.14 1062.89 3463.54 1065.08 3464.14 1069.1H3466.72ZM3470.56 1082H3484.66V1079.81H3473.23V1072.28H3481.36V1070.12H3473.23V1063.19H3484.66V1061H3470.56V1082Z" fill="#626262"/>
<path d="M517.57 1190.27C521.65 1190.27 524.77 1187.42 524.77 1183.43C524.77 1179.41 521.8 1176.56 517.93 1176.56C515.05 1176.56 512.77 1178.33 512.14 1180.82C511.75 1174.16 514.09 1170.8 517.36 1170.8C519.49 1170.8 521.02 1172.21 521.89 1174.79H524.56C523.42 1170.86 520.93 1168.7 517.36 1168.7C512.47 1168.7 509.53 1172.99 509.53 1179.8C509.53 1186.7 512.89 1190.27 517.57 1190.27ZM517.51 1188.14C514.9 1188.14 512.83 1186.31 512.83 1183.31C512.83 1180.31 514.9 1178.48 517.51 1178.48C520.09 1178.48 522.16 1180.31 522.16 1183.31C522.16 1186.31 520.09 1188.14 517.51 1188.14ZM535.192 1190.27C539.242 1190.27 542.272 1187.93 542.272 1184.18C542.272 1181.54 540.982 1179.68 538.492 1178.96C540.562 1178.24 541.762 1176.53 541.762 1174.25C541.762 1170.8 538.972 1168.73 535.072 1168.73C530.932 1168.73 528.292 1171.13 527.872 1175.09H530.422C530.842 1172.39 532.342 1170.92 535.072 1170.92C537.532 1170.92 539.152 1172.27 539.152 1174.46C539.152 1176.59 537.682 1177.94 535.282 1177.94H532.822V1180.19H535.342C538.012 1180.19 539.602 1181.63 539.602 1184.06C539.602 1186.61 537.892 1188.08 535.192 1188.08C532.342 1188.08 530.662 1186.46 530.152 1183.07H527.602C528.052 1187.78 531.022 1190.27 535.192 1190.27ZM552.88 1190H555.55V1180.46H563.56V1178.3H555.55V1171.19H566.86V1169H552.88V1190ZM570.166 1190H572.836V1169H570.166V1190ZM577.636 1190H580.306V1180.46H588.316V1178.3H580.306V1171.19H591.616V1169H577.636V1190ZM600.554 1190H603.224V1171.19H610.394V1169H593.324V1171.19H600.554V1190ZM613.291 1190H615.961V1180.34H626.041V1190H628.711V1169H626.041V1178.15H615.961V1169H613.291V1190ZM638.353 1190H641.053L643.003 1184.57H652.033L653.953 1190H656.863L649.153 1169H646.033L638.353 1190ZM644.263 1181.06L647.503 1171.76L650.773 1181.06L651.283 1182.5H643.753L644.263 1181.06ZM673.504 1169H670.804L667.594 1177.94L664.324 1187.09L661.084 1177.94L657.904 1169H654.994L662.704 1190H665.824L673.504 1169ZM676.396 1190H690.496V1187.81H679.066V1180.28H687.196V1178.12H679.066V1171.19H690.496V1169H676.396V1190Z" fill="black"/>
<path d="M2348.44 1799H2362.06V1796.78L2351.77 1796.84C2353.36 1795.31 2354.71 1793.99 2355.88 1792.82C2360.65 1787.99 2361.94 1785.92 2361.94 1783.34C2361.94 1780.1 2359.27 1777.73 2355.61 1777.73C2351.56 1777.73 2348.92 1780.19 2348.23 1784.84H2350.72C2351.41 1781.54 2353 1779.92 2355.55 1779.92C2357.77 1779.92 2359.3 1781.45 2359.3 1783.52C2359.3 1785.41 2358.28 1787.06 2354.14 1791.29C2352.67 1792.79 2350.78 1794.62 2348.44 1796.9V1799ZM2375.93 1799H2379.08L2381.24 1790.54L2383.37 1781.75L2385.5 1790.54L2387.66 1799H2390.75L2395.67 1778H2393.06L2391.11 1786.82L2389.16 1796L2386.97 1786.82L2384.75 1778H2382.11L2379.89 1786.82L2377.64 1796L2375.72 1786.82L2373.77 1778H2371.04L2375.93 1799ZM2407.66 1799H2410.27V1778H2408.53C2407.87 1779.77 2406.7 1780.46 2404.09 1780.52V1782.2H2407.66V1799ZM2421.57 1799.27C2425.62 1799.27 2428.65 1796.93 2428.65 1793.18C2428.65 1790.54 2427.36 1788.68 2424.87 1787.96C2426.94 1787.24 2428.14 1785.53 2428.14 1783.25C2428.14 1779.8 2425.35 1777.73 2421.44 1777.73C2417.31 1777.73 2414.67 1780.13 2414.25 1784.09H2416.8C2417.22 1781.39 2418.72 1779.92 2421.44 1779.92C2423.91 1779.92 2425.53 1781.27 2425.53 1783.46C2425.53 1785.59 2424.06 1786.94 2421.66 1786.94H2419.2V1789.19H2421.72C2424.39 1789.19 2425.98 1790.63 2425.98 1793.06C2425.98 1795.61 2424.27 1797.08 2421.57 1797.08C2418.72 1797.08 2417.03 1795.46 2416.53 1792.07H2413.98C2414.43 1796.78 2417.4 1799.27 2421.57 1799.27ZM2437.53 1799H2440.2V1780.19H2447.37V1778H2430.3V1780.19H2437.53V1799ZM2450.27 1799H2452.94V1789.34H2463.02V1799H2465.69V1778H2463.02V1787.15H2452.94V1778H2450.27V1799ZM2485.08 1799.27C2489.52 1799.27 2492.37 1796.96 2492.37 1793.21C2492.37 1789.25 2488.56 1788.14 2485.05 1787.18C2482.05 1786.37 2479.26 1785.62 2479.26 1783.28C2479.26 1781.12 2480.97 1779.89 2483.64 1779.89C2486.91 1779.89 2489.13 1781.48 2489.79 1784.87H2492.34C2491.59 1780.31 2488.44 1777.73 2483.64 1777.73C2479.38 1777.73 2476.62 1779.95 2476.62 1783.49C2476.62 1787.48 2480.34 1788.53 2483.82 1789.43C2486.88 1790.24 2489.73 1790.96 2489.73 1793.48C2489.73 1795.82 2487.93 1797.11 2485.02 1797.11C2481.66 1797.11 2479.65 1795.64 2478.93 1792.01H2476.29C2477.07 1796.87 2480.19 1799.27 2485.08 1799.27ZM2500.58 1799H2503.25V1780.19H2510.42V1778H2493.35V1780.19H2500.58V1799Z" fill="black"/>
<path d="M2909.57 1799.27C2913.65 1799.27 2916.77 1796.42 2916.77 1792.43C2916.77 1788.41 2913.8 1785.56 2909.93 1785.56C2907.05 1785.56 2904.77 1787.33 2904.14 1789.82C2903.75 1783.16 2906.09 1779.8 2909.36 1779.8C2911.49 1779.8 2913.02 1781.21 2913.89 1783.79H2916.56C2915.42 1779.86 2912.93 1777.7 2909.36 1777.7C2904.47 1777.7 2901.53 1781.99 2901.53 1788.8C2901.53 1795.7 2904.89 1799.27 2909.57 1799.27ZM2909.51 1797.14C2906.9 1797.14 2904.83 1795.31 2904.83 1792.31C2904.83 1789.31 2906.9 1787.48 2909.51 1787.48C2912.09 1787.48 2914.16 1789.31 2914.16 1792.31C2914.16 1795.31 2912.09 1797.14 2909.51 1797.14ZM2927.68 1799.27C2931.76 1799.27 2934.88 1796.42 2934.88 1792.43C2934.88 1788.41 2931.91 1785.56 2928.04 1785.56C2925.16 1785.56 2922.88 1787.33 2922.25 1789.82C2921.86 1783.16 2924.2 1779.8 2927.47 1779.8C2929.6 1779.8 2931.13 1781.21 2932 1783.79H2934.67C2933.53 1779.86 2931.04 1777.7 2927.47 1777.7C2922.58 1777.7 2919.64 1781.99 2919.64 1788.8C2919.64 1795.7 2923 1799.27 2927.68 1799.27ZM2927.62 1797.14C2925.01 1797.14 2922.94 1795.31 2922.94 1792.31C2922.94 1789.31 2925.01 1787.48 2927.62 1787.48C2930.2 1787.48 2932.27 1789.31 2932.27 1792.31C2932.27 1795.31 2930.2 1797.14 2927.62 1797.14ZM2945.53 1799H2948.2V1789.46H2956.21V1787.3H2948.2V1780.19H2959.51V1778H2945.53V1799ZM2962.81 1799H2965.48V1778H2962.81V1799ZM2970.28 1799H2972.95V1789.46H2980.96V1787.3H2972.95V1780.19H2984.26V1778H2970.28V1799ZM2993.2 1799H2995.87V1780.19H3003.04V1778H2985.97V1780.19H2993.2V1799ZM3005.94 1799H3008.61V1789.34H3018.69V1799H3021.36V1778H3018.69V1787.15H3008.61V1778H3005.94V1799ZM3031 1799H3033.7L3035.65 1793.57H3044.68L3046.6 1799H3049.51L3041.8 1778H3038.68L3031 1799ZM3036.91 1790.06L3040.15 1780.76L3043.42 1790.06L3043.93 1791.5H3036.4L3036.91 1790.06ZM3066.15 1778H3063.45L3060.24 1786.94L3056.97 1796.09L3053.73 1786.94L3050.55 1778H3047.64L3055.35 1799H3058.47L3066.15 1778ZM3069.04 1799H3083.14V1796.81H3071.71V1789.28H3079.84V1787.12H3071.71V1780.19H3083.14V1778H3069.04V1799Z" fill="black"/>
<path d="M524.425 1151.59C533.29 1151.59 538.51 1147.08 538.51 1139.03V1119.5H529.825V1139.48C529.825 1143.17 527.755 1145.1 524.695 1145.1C521.545 1145.1 519.52 1143.12 519.52 1139.44V1119.5H510.43V1138.98C510.43 1147.04 515.695 1151.59 524.425 1151.59ZM543.793 1151H551.398L551.353 1141.19L551.263 1131.29L557.338 1141.19L563.413 1151H572.413V1119.5H564.808L564.853 1129.31L564.943 1139.25L558.868 1129.31L552.793 1119.5H543.793V1151ZM577.982 1151H587.072V1119.5H577.982V1151ZM623.44 1119.5H614.53L610.84 1130.75L607.105 1142.09L603.325 1130.75L599.545 1119.5H590.275L601.885 1151H611.875L623.44 1119.5ZM626.674 1151H651.874V1144.88H635.674V1137.99H647.374V1132.19H635.674V1125.66H651.874V1119.5H626.674V1151ZM656.073 1151H665.118V1138.89H671.823C673.893 1138.89 674.703 1139.75 674.748 1141.91C674.793 1146.5 675.243 1149.06 676.008 1151H685.413C684.423 1148.52 683.748 1145.78 683.613 1141.64C683.523 1138.4 682.218 1136.55 678.798 1135.97C682.353 1134.8 684.513 1132.1 684.513 1128.23C684.513 1122.78 680.688 1119.5 673.893 1119.5H656.073V1151ZM671.688 1125.62C674.028 1125.62 675.558 1126.92 675.558 1129.4C675.558 1131.87 674.028 1133.18 671.688 1133.18H665.118V1125.62H671.688ZM702.754 1151.54C710.899 1151.54 716.119 1147.58 716.119 1141.59C716.119 1134.53 709.099 1133.04 703.564 1131.65C699.964 1130.7 696.994 1129.8 696.994 1127.46C696.994 1125.71 698.524 1124.45 701.134 1124.45C704.374 1124.45 706.669 1126.11 707.389 1129.53H715.849C714.544 1122.83 709.099 1118.96 700.819 1118.96C692.719 1118.96 687.994 1122.88 687.994 1128.63C687.994 1135.43 694.474 1136.96 699.919 1138.31C703.834 1139.25 707.164 1140.06 707.164 1142.67C707.164 1144.79 705.409 1146.05 702.574 1146.05C699.199 1146.05 697.129 1144.74 696.274 1140.92H687.814C688.939 1147.98 694.339 1151.54 702.754 1151.54ZM720.233 1151H729.323V1119.5H720.233V1151ZM743.281 1151H752.281V1125.71H762.676V1119.5H732.796V1125.71H743.281V1151ZM776.041 1151H785.041V1140.24L797.191 1119.5H787.786L780.766 1132.32L773.746 1119.5H763.936L776.041 1140.24V1151ZM838.79 1132.32C837.8 1123.68 832.13 1118.91 823.625 1118.91C813.995 1118.91 807.92 1124.76 807.92 1135.25C807.92 1145.69 813.995 1151.59 823.625 1151.59C832.13 1151.59 837.62 1146.77 838.745 1138.08H830.06C829.43 1142.99 827.135 1145.24 823.625 1145.24C819.53 1145.24 817.1 1142.13 817.1 1135.25C817.1 1128.36 819.485 1125.21 823.625 1125.21C827.135 1125.21 829.43 1127.46 830.06 1132.32H838.79ZM843.061 1151H868.261V1144.88H852.061V1137.99H863.761V1132.19H852.061V1125.66H868.261V1119.5H843.061V1151ZM872.46 1151H880.065L880.02 1141.19L879.93 1131.29L886.005 1141.19L892.08 1151H901.08V1119.5H893.475L893.52 1129.31L893.61 1139.25L887.535 1129.31L881.46 1119.5H872.46V1151ZM915.019 1151H924.019V1125.71H934.414V1119.5H904.534V1125.71H915.019V1151ZM937.894 1151H963.094V1144.88H946.894V1137.99H958.594V1132.19H946.894V1125.66H963.094V1119.5H937.894V1151ZM967.294 1151H976.339V1138.89H983.044C985.114 1138.89 985.924 1139.75 985.969 1141.91C986.014 1146.5 986.464 1149.06 987.229 1151H996.634C995.644 1148.52 994.969 1145.78 994.834 1141.64C994.744 1138.4 993.439 1136.55 990.019 1135.97C993.574 1134.8 995.734 1132.1 995.734 1128.23C995.734 1122.78 991.909 1119.5 985.114 1119.5H967.294V1151ZM982.909 1125.62C985.249 1125.62 986.779 1126.92 986.779 1129.4C986.779 1131.87 985.249 1133.18 982.909 1133.18H976.339V1125.62H982.909Z" fill="black"/>
<path d="M1218.86 400H1224.89V391.66H1232.57V387.73H1224.89V383.14H1235.57V379H1218.86V400ZM1238.17 400H1254.79V395.92H1244.2V379H1238.17V400ZM1266.26 400.39C1272.74 400.39 1276.79 396.46 1276.79 389.5C1276.79 382.51 1272.74 378.61 1266.26 378.61C1259.81 378.61 1255.73 382.51 1255.73 389.5C1255.73 396.46 1259.81 400.39 1266.26 400.39ZM1266.26 396.19C1263.47 396.19 1261.85 394.09 1261.85 389.53C1261.85 384.94 1263.47 382.84 1266.26 382.84C1269.05 382.84 1270.67 384.94 1270.67 389.53C1270.67 394.09 1269.05 396.19 1266.26 396.19ZM1289.58 400.39C1296.06 400.39 1300.11 396.46 1300.11 389.5C1300.11 382.51 1296.06 378.61 1289.58 378.61C1283.13 378.61 1279.05 382.51 1279.05 389.5C1279.05 396.46 1283.13 400.39 1289.58 400.39ZM1289.58 396.19C1286.79 396.19 1285.17 394.09 1285.17 389.53C1285.17 384.94 1286.79 382.84 1289.58 382.84C1292.37 382.84 1293.99 384.94 1293.99 389.53C1293.99 394.09 1292.37 396.19 1289.58 396.19ZM1303.03 400H1309.06V391.93H1313.53C1314.91 391.93 1315.45 392.5 1315.48 393.94C1315.51 397 1315.81 398.71 1316.32 400H1322.59C1321.93 398.35 1321.48 396.52 1321.39 393.76C1321.33 391.6 1320.46 390.37 1318.18 389.98C1320.55 389.2 1321.99 387.4 1321.99 384.82C1321.99 381.19 1319.44 379 1314.91 379H1303.03V400ZM1313.44 383.08C1315 383.08 1316.02 383.95 1316.02 385.6C1316.02 387.25 1315 388.12 1313.44 388.12H1309.06V383.08H1313.44ZM1340.06 400.33C1345.25 400.33 1348.94 397.33 1348.94 393.07C1348.94 389.11 1345.64 386.41 1341.65 386.41C1339.13 386.41 1337.18 387.61 1336.25 389.41C1336.19 384.4 1337.78 382.27 1339.91 382.27C1341.17 382.27 1342.16 383.14 1342.67 384.82H1348.52C1347.41 380.83 1344.14 378.64 1339.91 378.64C1334.12 378.64 1330.46 382.63 1330.46 389.74C1330.46 396.73 1334.21 400.33 1340.06 400.33ZM1339.91 396.73C1338.26 396.73 1336.76 395.47 1336.76 393.13C1336.76 390.79 1338.26 389.53 1339.91 389.53C1341.56 389.53 1343.06 390.79 1343.06 393.13C1343.06 395.47 1341.56 396.73 1339.91 396.73Z" fill="white"/>
<path d="M1218.86 536H1224.89V527.66H1232.57V523.73H1224.89V519.14H1235.57V515H1218.86V536ZM1238.17 536H1254.79V531.92H1244.2V515H1238.17V536ZM1266.26 536.39C1272.74 536.39 1276.79 532.46 1276.79 525.5C1276.79 518.51 1272.74 514.61 1266.26 514.61C1259.81 514.61 1255.73 518.51 1255.73 525.5C1255.73 532.46 1259.81 536.39 1266.26 536.39ZM1266.26 532.19C1263.47 532.19 1261.85 530.09 1261.85 525.53C1261.85 520.94 1263.47 518.84 1266.26 518.84C1269.05 518.84 1270.67 520.94 1270.67 525.53C1270.67 530.09 1269.05 532.19 1266.26 532.19ZM1289.58 536.39C1296.06 536.39 1300.11 532.46 1300.11 525.5C1300.11 518.51 1296.06 514.61 1289.58 514.61C1283.13 514.61 1279.05 518.51 1279.05 525.5C1279.05 532.46 1283.13 536.39 1289.58 536.39ZM1289.58 532.19C1286.79 532.19 1285.17 530.09 1285.17 525.53C1285.17 520.94 1286.79 518.84 1289.58 518.84C1292.37 518.84 1293.99 520.94 1293.99 525.53C1293.99 530.09 1292.37 532.19 1289.58 532.19ZM1303.03 536H1309.06V527.93H1313.53C1314.91 527.93 1315.45 528.5 1315.48 529.94C1315.51 533 1315.81 534.71 1316.32 536H1322.59C1321.93 534.35 1321.48 532.52 1321.39 529.76C1321.33 527.6 1320.46 526.37 1318.18 525.98C1320.55 525.2 1321.99 523.4 1321.99 520.82C1321.99 517.19 1319.44 515 1314.91 515H1303.03V536ZM1313.44 519.08C1315 519.08 1316.02 519.95 1316.02 521.6C1316.02 523.25 1315 524.12 1313.44 524.12H1309.06V519.08H1313.44ZM1339.22 536.33C1344.41 536.33 1347.95 533.42 1347.95 528.68C1347.95 524.39 1344.95 521.75 1340.87 521.75C1339.01 521.75 1337.39 522.35 1336.19 523.37L1336.82 518.99H1346.99V515H1332.53L1330.79 526.64H1336.46C1337.12 525.59 1338.02 524.93 1339.19 524.93C1340.96 524.93 1342.01 526.4 1342.01 528.68C1342.01 531.08 1340.99 532.58 1339.22 532.58C1337.51 532.58 1336.43 531.44 1336.19 528.89H1330.4C1330.76 533.57 1334.03 536.33 1339.22 536.33Z" fill="white"/>
<path d="M1218.86 804H1224.89V795.66H1232.57V791.73H1224.89V787.14H1235.57V783H1218.86V804ZM1238.17 804H1254.79V799.92H1244.2V783H1238.17V804ZM1266.26 804.39C1272.74 804.39 1276.79 800.46 1276.79 793.5C1276.79 786.51 1272.74 782.61 1266.26 782.61C1259.81 782.61 1255.73 786.51 1255.73 793.5C1255.73 800.46 1259.81 804.39 1266.26 804.39ZM1266.26 800.19C1263.47 800.19 1261.85 798.09 1261.85 793.53C1261.85 788.94 1263.47 786.84 1266.26 786.84C1269.05 786.84 1270.67 788.94 1270.67 793.53C1270.67 798.09 1269.05 800.19 1266.26 800.19ZM1289.58 804.39C1296.06 804.39 1300.11 800.46 1300.11 793.5C1300.11 786.51 1296.06 782.61 1289.58 782.61C1283.13 782.61 1279.05 786.51 1279.05 793.5C1279.05 800.46 1283.13 804.39 1289.58 804.39ZM1289.58 800.19C1286.79 800.19 1285.17 798.09 1285.17 793.53C1285.17 788.94 1286.79 786.84 1289.58 786.84C1292.37 786.84 1293.99 788.94 1293.99 793.53C1293.99 798.09 1292.37 800.19 1289.58 800.19ZM1303.03 804H1309.06V795.93H1313.53C1314.91 795.93 1315.45 796.5 1315.48 797.94C1315.51 801 1315.81 802.71 1316.32 804H1322.59C1321.93 802.35 1321.48 800.52 1321.39 797.76C1321.33 795.6 1320.46 794.37 1318.18 793.98C1320.55 793.2 1321.99 791.4 1321.99 788.82C1321.99 785.19 1319.44 783 1314.91 783H1303.03V804ZM1313.44 787.08C1315 787.08 1316.02 787.95 1316.02 789.6C1316.02 791.25 1315 792.12 1313.44 792.12H1309.06V787.08H1313.44ZM1339.7 804.36C1344.83 804.36 1348.37 801.87 1348.37 798.09C1348.37 795.54 1346.9 793.8 1344.2 793.05C1346.54 792.33 1347.89 790.68 1347.89 788.43C1347.89 784.89 1344.62 782.64 1339.61 782.64C1334.39 782.64 1331.15 785.1 1330.49 789.48H1336.01C1336.28 787.56 1337.42 786.45 1339.31 786.45C1340.99 786.45 1342.13 787.47 1342.13 788.97C1342.13 790.5 1341.11 791.4 1339.4 791.4H1337.3V794.94H1339.46C1341.35 794.94 1342.4 795.93 1342.4 797.67C1342.4 799.47 1341.26 800.58 1339.43 800.58C1337.42 800.58 1336.16 799.23 1335.86 796.8H1330.34C1330.94 801.72 1334.24 804.36 1339.7 804.36Z" fill="white"/>
<path d="M2349.79 1754H2358.84V1742.39H2367.07C2373.69 1742.39 2377.92 1738.83 2377.92 1732.49C2377.92 1726.1 2373.69 1722.5 2367.07 1722.5H2349.79V1754ZM2364.82 1728.39C2367.39 1728.39 2369.1 1729.79 2369.1 1732.62C2369.1 1735.5 2367.39 1736.85 2364.82 1736.85H2358.84V1728.39H2364.82ZM2375.44 1754H2384.04L2386.06 1747.92H2397.49L2399.47 1754H2408.61L2397.04 1722.5H2387.05L2375.44 1754ZM2387.95 1742.34L2391.82 1730.6L2395.65 1742.34L2395.69 1742.44H2387.91L2387.95 1742.34ZM2411.84 1754H2420.89V1741.89H2427.59C2429.66 1741.89 2430.47 1742.75 2430.52 1744.91C2430.56 1749.5 2431.01 1752.06 2431.78 1754H2441.18C2440.19 1751.52 2439.52 1748.78 2439.38 1744.64C2439.29 1741.4 2437.99 1739.55 2434.57 1738.97C2438.12 1737.8 2440.28 1735.1 2440.28 1731.23C2440.28 1725.78 2436.46 1722.5 2429.66 1722.5H2411.84V1754ZM2427.46 1728.62C2429.8 1728.62 2431.33 1729.92 2431.33 1732.4C2431.33 1734.87 2429.8 1736.18 2427.46 1736.18H2420.89V1728.62H2427.46ZM2458.52 1754.54C2466.67 1754.54 2471.89 1750.58 2471.89 1744.59C2471.89 1737.53 2464.87 1736.04 2459.33 1734.65C2455.73 1733.7 2452.76 1732.8 2452.76 1730.46C2452.76 1728.71 2454.29 1727.45 2456.9 1727.45C2460.14 1727.45 2462.44 1729.11 2463.16 1732.53H2471.62C2470.31 1725.83 2464.87 1721.96 2456.59 1721.96C2448.49 1721.96 2443.76 1725.88 2443.76 1731.63C2443.76 1738.43 2450.24 1739.96 2455.69 1741.31C2459.6 1742.25 2462.93 1743.06 2462.93 1745.67C2462.93 1747.79 2461.18 1749.05 2458.34 1749.05C2454.97 1749.05 2452.9 1747.74 2452.04 1743.92H2443.58C2444.71 1750.98 2450.11 1754.54 2458.52 1754.54ZM2490.58 1754.59C2500.3 1754.59 2506.38 1748.69 2506.38 1738.25C2506.38 1727.76 2500.3 1721.91 2490.58 1721.91C2480.91 1721.91 2474.79 1727.76 2474.79 1738.25C2474.79 1748.69 2480.91 1754.59 2490.58 1754.59ZM2490.58 1748.28C2486.4 1748.28 2483.97 1745.13 2483.97 1738.29C2483.97 1731.41 2486.4 1728.26 2490.58 1728.26C2494.77 1728.26 2497.2 1731.41 2497.2 1738.29C2497.2 1745.13 2494.77 1748.28 2490.58 1748.28ZM2510.76 1754H2518.37L2518.32 1744.19L2518.23 1734.29L2524.31 1744.19L2530.38 1754H2539.38V1722.5H2531.78L2531.82 1732.31L2531.91 1742.25L2525.84 1732.31L2519.76 1722.5H2510.76V1754ZM2558.54 1754.54C2566.69 1754.54 2571.91 1750.58 2571.91 1744.59C2571.91 1737.53 2564.89 1736.04 2559.35 1734.65C2555.75 1733.7 2552.78 1732.8 2552.78 1730.46C2552.78 1728.71 2554.31 1727.45 2556.92 1727.45C2560.16 1727.45 2562.46 1729.11 2563.18 1732.53H2571.64C2570.33 1725.83 2564.89 1721.96 2556.61 1721.96C2548.51 1721.96 2543.78 1725.88 2543.78 1731.63C2543.78 1738.43 2550.26 1739.96 2555.71 1741.31C2559.62 1742.25 2562.95 1743.06 2562.95 1745.67C2562.95 1747.79 2561.2 1749.05 2558.36 1749.05C2554.99 1749.05 2552.92 1747.74 2552.06 1743.92H2543.6C2544.73 1750.98 2550.13 1754.54 2558.54 1754.54ZM2593.8 1762.24H2605.64V1759.09H2597.72V1725.69H2605.64V1722.5H2593.8V1762.24ZM2620.47 1754H2624.29V1741.31L2623.98 1728.03L2632.17 1741.31L2640.27 1754H2644.68V1722.5H2640.9L2640.94 1735.28L2641.21 1748.6L2633.02 1735.28L2624.83 1722.5H2620.47V1754ZM2664.44 1754.45C2672.72 1754.45 2678.35 1748.78 2678.35 1738.25C2678.35 1727.72 2672.77 1722.05 2664.44 1722.05C2656.21 1722.05 2650.54 1727.72 2650.54 1738.25C2650.54 1748.78 2656.25 1754.45 2664.44 1754.45ZM2664.44 1751.12C2658.37 1751.12 2654.54 1746.57 2654.54 1738.25C2654.54 1729.88 2658.32 1725.33 2664.44 1725.33C2670.52 1725.33 2674.34 1729.92 2674.34 1738.25C2674.34 1746.57 2670.47 1751.12 2664.44 1751.12ZM2684.19 1754H2688.19V1739.96H2698.9C2701.69 1739.96 2702.86 1741.13 2702.95 1744.05C2703.04 1749.77 2703.58 1752.02 2704.39 1754H2708.71C2707.72 1751.57 2707 1748.78 2706.82 1744.19C2706.69 1740.86 2705.7 1739.01 2702.91 1738.38C2706.06 1737.3 2708.04 1734.69 2708.04 1730.91C2708.04 1725.47 2704.39 1722.5 2698.72 1722.5H2684.19V1754ZM2698.5 1725.78C2702.05 1725.78 2704.12 1727.72 2704.12 1731.32C2704.12 1734.96 2702.05 1736.85 2698.5 1736.85H2688.19V1725.78H2698.5ZM2721.6 1754H2725.6V1725.78H2736.36V1722.5H2710.75V1725.78H2721.6V1754ZM2740.7 1754H2744.71V1739.51H2759.83V1754H2763.83V1722.5H2759.83V1736.22H2744.71V1722.5H2740.7V1754ZM2790.49 1722.5H2778.66V1725.65H2786.58V1759.04H2778.66V1762.24H2790.49V1722.5Z" fill="black"/>
<path d="M2902.79 1754H2911.84V1742.39H2920.07C2926.69 1742.39 2930.92 1738.83 2930.92 1732.49C2930.92 1726.1 2926.69 1722.5 2920.07 1722.5H2902.79V1754ZM2917.82 1728.39C2920.39 1728.39 2922.1 1729.79 2922.1 1732.62C2922.1 1735.5 2920.39 1736.85 2917.82 1736.85H2911.84V1728.39H2917.82ZM2928.44 1754H2937.04L2939.06 1747.92H2950.49L2952.47 1754H2961.61L2950.04 1722.5H2940.05L2928.44 1754ZM2940.95 1742.34L2944.82 1730.6L2948.65 1742.34L2948.69 1742.44H2940.91L2940.95 1742.34ZM2964.84 1754H2973.89V1741.89H2980.59C2982.66 1741.89 2983.47 1742.75 2983.52 1744.91C2983.56 1749.5 2984.01 1752.06 2984.78 1754H2994.18C2993.19 1751.52 2992.52 1748.78 2992.38 1744.64C2992.29 1741.4 2990.99 1739.55 2987.57 1738.97C2991.12 1737.8 2993.28 1735.1 2993.28 1731.23C2993.28 1725.78 2989.46 1722.5 2982.66 1722.5H2964.84V1754ZM2980.46 1728.62C2982.8 1728.62 2984.33 1729.92 2984.33 1732.4C2984.33 1734.87 2982.8 1736.18 2980.46 1736.18H2973.89V1728.62H2980.46ZM3011.52 1754.54C3019.67 1754.54 3024.89 1750.58 3024.89 1744.59C3024.89 1737.53 3017.87 1736.04 3012.33 1734.65C3008.73 1733.7 3005.76 1732.8 3005.76 1730.46C3005.76 1728.71 3007.29 1727.45 3009.9 1727.45C3013.14 1727.45 3015.44 1729.11 3016.16 1732.53H3024.62C3023.31 1725.83 3017.87 1721.96 3009.59 1721.96C3001.49 1721.96 2996.76 1725.88 2996.76 1731.63C2996.76 1738.43 3003.24 1739.96 3008.69 1741.31C3012.6 1742.25 3015.93 1743.06 3015.93 1745.67C3015.93 1747.79 3014.18 1749.05 3011.34 1749.05C3007.97 1749.05 3005.9 1747.74 3005.04 1743.92H2996.58C2997.71 1750.98 3003.11 1754.54 3011.52 1754.54ZM3043.58 1754.59C3053.3 1754.59 3059.38 1748.69 3059.38 1738.25C3059.38 1727.76 3053.3 1721.91 3043.58 1721.91C3033.91 1721.91 3027.79 1727.76 3027.79 1738.25C3027.79 1748.69 3033.91 1754.59 3043.58 1754.59ZM3043.58 1748.28C3039.4 1748.28 3036.97 1745.13 3036.97 1738.29C3036.97 1731.41 3039.4 1728.26 3043.58 1728.26C3047.77 1728.26 3050.2 1731.41 3050.2 1738.29C3050.2 1745.13 3047.77 1748.28 3043.58 1748.28ZM3063.76 1754H3071.37L3071.32 1744.19L3071.23 1734.29L3077.31 1744.19L3083.38 1754H3092.38V1722.5H3084.78L3084.82 1732.31L3084.91 1742.25L3078.84 1732.31L3072.76 1722.5H3063.76V1754ZM3111.54 1754.54C3119.69 1754.54 3124.91 1750.58 3124.91 1744.59C3124.91 1737.53 3117.89 1736.04 3112.35 1734.65C3108.75 1733.7 3105.78 1732.8 3105.78 1730.46C3105.78 1728.71 3107.31 1727.45 3109.92 1727.45C3113.16 1727.45 3115.46 1729.11 3116.18 1732.53H3124.64C3123.33 1725.83 3117.89 1721.96 3109.61 1721.96C3101.51 1721.96 3096.78 1725.88 3096.78 1731.63C3096.78 1738.43 3103.26 1739.96 3108.71 1741.31C3112.62 1742.25 3115.95 1743.06 3115.95 1745.67C3115.95 1747.79 3114.2 1749.05 3111.36 1749.05C3107.99 1749.05 3105.92 1747.74 3105.06 1743.92H3096.6C3097.73 1750.98 3103.13 1754.54 3111.54 1754.54ZM3146.8 1762.24H3158.64V1759.09H3150.72V1725.69H3158.64V1722.5H3146.8V1762.24ZM3185.21 1754.41C3191.87 1754.41 3196.15 1750.94 3196.15 1745.31C3196.15 1739.37 3190.43 1737.71 3185.17 1736.27C3180.67 1735.05 3176.48 1733.93 3176.48 1730.42C3176.48 1727.18 3179.05 1725.33 3183.05 1725.33C3187.96 1725.33 3191.29 1727.72 3192.28 1732.8H3196.1C3194.98 1725.96 3190.25 1722.09 3183.05 1722.09C3176.66 1722.09 3172.52 1725.42 3172.52 1730.73C3172.52 1736.72 3178.1 1738.29 3183.32 1739.64C3187.91 1740.86 3192.19 1741.94 3192.19 1745.72C3192.19 1749.23 3189.49 1751.16 3185.12 1751.16C3180.08 1751.16 3177.07 1748.96 3175.99 1743.51H3172.03C3173.2 1750.8 3177.88 1754.41 3185.21 1754.41ZM3214.37 1754.45C3222.65 1754.45 3228.27 1748.78 3228.27 1738.25C3228.27 1727.72 3222.69 1722.05 3214.37 1722.05C3206.13 1722.05 3200.46 1727.72 3200.46 1738.25C3200.46 1748.78 3206.18 1754.45 3214.37 1754.45ZM3214.37 1751.12C3208.29 1751.12 3204.47 1746.57 3204.47 1738.25C3204.47 1729.88 3208.25 1725.33 3214.37 1725.33C3220.44 1725.33 3224.27 1729.92 3224.27 1738.25C3224.27 1746.57 3220.4 1751.12 3214.37 1751.12ZM3245.59 1754.45C3252.7 1754.45 3257.56 1750.17 3257.56 1742.79V1722.5H3253.73V1742.79C3253.73 1748.19 3250.31 1751.07 3245.68 1751.07C3241 1751.07 3237.62 1748.19 3237.62 1742.79V1722.5H3233.66V1742.75C3233.66 1750.13 3238.57 1754.45 3245.59 1754.45ZM3272.31 1754H3276.32V1725.78H3287.07V1722.5H3261.47V1725.78H3272.31V1754ZM3291.42 1754H3295.42V1739.51H3310.54V1754H3314.55V1722.5H3310.54V1736.22H3295.42V1722.5H3291.42V1754ZM3341.21 1722.5H3329.37V1725.65H3337.29V1759.04H3329.37V1762.24H3341.21V1722.5Z" fill="black"/>
<path d="M547.5 1072H552.84V1060.69H542.76V1063.96H547.23C546.69 1066.96 545.1 1068.37 542.79 1068.37C539.97 1068.37 538.17 1066.21 538.17 1061.62C538.17 1056.94 539.88 1054.84 542.73 1054.84C544.74 1054.84 546.24 1056.01 546.78 1058.5H552.66C551.73 1053.4 548.01 1050.61 542.58 1050.61C536.19 1050.61 532.05 1054.27 532.05 1061.56C532.05 1068.43 535.68 1072.33 541.08 1072.33C543.87 1072.33 546.06 1071.1 547.47 1068.85L547.5 1072ZM556.21 1072H562.24V1063.93H566.71C568.09 1063.93 568.63 1064.5 568.66 1065.94C568.69 1069 568.99 1070.71 569.5 1072H575.77C575.11 1070.35 574.66 1068.52 574.57 1065.76C574.51 1063.6 573.64 1062.37 571.36 1061.98C573.73 1061.2 575.17 1059.4 575.17 1056.82C575.17 1053.19 572.62 1051 568.09 1051H556.21V1072ZM566.62 1055.08C568.18 1055.08 569.2 1055.95 569.2 1057.6C569.2 1059.25 568.18 1060.12 566.62 1060.12H562.24V1055.08H566.62ZM587.844 1072.39C594.324 1072.39 598.374 1068.46 598.374 1061.5C598.374 1054.51 594.324 1050.61 587.844 1050.61C581.394 1050.61 577.314 1054.51 577.314 1061.5C577.314 1068.46 581.394 1072.39 587.844 1072.39ZM587.844 1068.19C585.054 1068.19 583.434 1066.09 583.434 1061.53C583.434 1056.94 585.054 1054.84 587.844 1054.84C590.634 1054.84 592.254 1056.94 592.254 1061.53C592.254 1066.09 590.634 1068.19 587.844 1068.19ZM610.388 1072.39C616.298 1072.39 619.778 1069.39 619.778 1064.02V1051H613.988V1064.32C613.988 1066.78 612.608 1068.07 610.568 1068.07C608.468 1068.07 607.118 1066.75 607.118 1064.29V1051H601.058V1063.99C601.058 1069.36 604.568 1072.39 610.388 1072.39ZM623.299 1072H628.369L628.339 1065.46L628.279 1058.86L632.329 1065.46L636.379 1072H642.379V1051H637.309L637.339 1057.54L637.399 1064.17L633.349 1057.54L629.299 1051H623.299V1072ZM646.092 1072H655.032C661.362 1072 665.982 1068.58 665.982 1061.53C665.982 1054.45 661.422 1051 655.242 1051H646.092V1072ZM654.462 1055.2C657.942 1055.2 659.892 1057.12 659.892 1061.56C659.892 1065.94 657.882 1067.83 654.462 1067.83H652.122V1055.2H654.462ZM675.008 1072H681.038V1063.66H688.718V1059.73H681.038V1055.14H691.718V1051H675.008V1072ZM694.315 1072H710.935V1067.92H700.345V1051H694.315V1072ZM722.404 1072.39C728.884 1072.39 732.934 1068.46 732.934 1061.5C732.934 1054.51 728.884 1050.61 722.404 1050.61C715.954 1050.61 711.874 1054.51 711.874 1061.5C711.874 1068.46 715.954 1072.39 722.404 1072.39ZM722.404 1068.19C719.614 1068.19 717.994 1066.09 717.994 1061.53C717.994 1056.94 719.614 1054.84 722.404 1054.84C725.194 1054.84 726.814 1056.94 726.814 1061.53C726.814 1066.09 725.194 1068.19 722.404 1068.19ZM745.725 1072.39C752.205 1072.39 756.255 1068.46 756.255 1061.5C756.255 1054.51 752.205 1050.61 745.725 1050.61C739.275 1050.61 735.195 1054.51 735.195 1061.5C735.195 1068.46 739.275 1072.39 745.725 1072.39ZM745.725 1068.19C742.935 1068.19 741.315 1066.09 741.315 1061.53C741.315 1056.94 742.935 1054.84 745.725 1054.84C748.515 1054.84 750.135 1056.94 750.135 1061.53C750.135 1066.09 748.515 1068.19 745.725 1068.19ZM759.178 1072H765.208V1063.93H769.678C771.058 1063.93 771.598 1064.5 771.628 1065.94C771.658 1069 771.958 1070.71 772.468 1072H778.738C778.078 1070.35 777.628 1068.52 777.538 1065.76C777.478 1063.6 776.608 1062.37 774.328 1061.98C776.698 1061.2 778.138 1059.4 778.138 1056.82C778.138 1053.19 775.588 1051 771.058 1051H759.178V1072ZM769.588 1055.08C771.148 1055.08 772.168 1055.95 772.168 1057.6C772.168 1059.25 771.148 1060.12 769.588 1060.12H765.208V1055.08H769.588Z" fill="black"/>
<path d="M3103.83 1341H2568L2901.17 1675H3437L3103.83 1341Z" fill="#D7D7D7" stroke="black" stroke-width="4" stroke-linejoin="round"/>
<rect x="2937.34" y="1264" width="106.643" height="76.7244" fill="white" stroke="black" stroke-width="4"/>
<line x1="2989.79" y1="1342.72" x2="2989.79" y2="1262" stroke="black" stroke-width="4"/>
<line x1="2982.45" y1="1315.06" x2="2982.45" y2="1302.64" stroke="black" stroke-width="4"/>
<line x1="2997.12" y1="1315.06" x2="2997.12" y2="1302.64" stroke="black" stroke-width="4"/>
<path d="M3103.83 1235H2568L2901.17 1569H3437L3103.83 1235Z" fill="white" fill-opacity="0.2" stroke="#5B5B5B" stroke-width="4" stroke-linejoin="round"/>
<path d="M3103.83 1147H2568L2901.17 1481H3437L3103.83 1147Z" fill="white" fill-opacity="0.2" stroke="#5B5B5B" stroke-width="4" stroke-linejoin="round"/>
<path d="M3103.83 1058H2568L2901.17 1392H3437L3103.83 1058Z" fill="url(#paint3_linear_330_723)" fill-opacity="0.8" stroke="black" stroke-width="4" stroke-linejoin="round"/>
<path d="M3103.83 970H2568L2901.17 1304H3437L3103.83 970Z" fill="white" stroke="#5B5B5B" stroke-width="4" stroke-linejoin="round"/>
<path d="M3103.83 881H2568L2901.17 1215H3437L3103.83 881Z" stroke="black" stroke-width="4" stroke-linejoin="round"/>
<line x1="3438" y1="1675" x2="3438" y2="1215" stroke="black" stroke-width="4" stroke-linejoin="round"/>
<path d="M2563 883.549L2898 1219.48" stroke="#D7D7D7" stroke-width="2" stroke-linejoin="round"/>
<path d="M2563 898.484L2898 1234.42" stroke="#D7D7D7" stroke-width="2" stroke-linejoin="round"/>
<path d="M2563 913.42L2898 1249.36" stroke="#D7D7D7" stroke-width="2" stroke-linejoin="round"/>
<path d="M2563 928.355L2898 1264.29" stroke="#D7D7D7" stroke-width="2" stroke-linejoin="round"/>
<path d="M2563 943.291L2898 1279.23" stroke="#D7D7D7" stroke-width="2" stroke-linejoin="round"/>
<path d="M2563 958.227L2898 1294.16" stroke="#D7D7D7" stroke-width="2" stroke-linejoin="round"/>
<path d="M2565 1158.94L2900 1494.87" stroke="#D7D7D7" stroke-width="2" stroke-linejoin="round"/>
<path d="M2565 1173.87L2900 1509.81" stroke="#D7D7D7" stroke-width="2" stroke-linejoin="round"/>
<path d="M2565 1188.81L2900 1524.74" stroke="#D7D7D7" stroke-width="2" stroke-linejoin="round"/>
<path d="M2565 1203.74L2900 1539.68" stroke="#D7D7D7" stroke-width="2" stroke-linejoin="round"/>
<path d="M2565 1218.68L2900 1554.61" stroke="#D7D7D7" stroke-width="2" stroke-linejoin="round"/>
<path d="M2565 1248.55L2900 1584.48" stroke="#D7D7D7" stroke-width="2" stroke-linejoin="round"/>
<path d="M2565 1263.48L2900 1599.42" stroke="#D7D7D7" stroke-width="2" stroke-linejoin="round"/>
<path d="M2565 1278.42L2900 1614.36" stroke="#D7D7D7" stroke-width="2" stroke-linejoin="round"/>
<path d="M2565 1293.36L2900 1629.29" stroke="#D7D7D7" stroke-width="2" stroke-linejoin="round"/>
<path d="M2565 1308.29L2900 1644.23" stroke="#D7D7D7" stroke-width="2" stroke-linejoin="round"/>
<path d="M2565 1323.23L2900 1659.16" stroke="#D7D7D7" stroke-width="2" stroke-linejoin="round"/>
<rect x="2542" y="573" width="153" height="1026" fill="white"/>
<line x1="2901" y1="1675" x2="2901" y2="1215" stroke="black" stroke-width="4" stroke-linejoin="round"/>
<path d="M2361.33 1345H2012L2345.17 1679H2694.5L2361.33 1345Z" fill="#D7D7D7" stroke="black" stroke-width="4" stroke-linejoin="round"/>
<path d="M2838 1606H2577.12L2495 1528H2760.39L2838 1606Z" fill="#D9D9D9"/>
<path d="M2623 1608H2834" stroke="black" stroke-width="4"/>
<path d="M2542 1526H2753" stroke="black" stroke-width="4"/>
<path d="M2361.33 1234H2012L2345.17 1568H2694.5L2361.33 1234Z" fill="white" stroke="#5B5B5B" stroke-width="4" stroke-linejoin="round"/>
<path d="M2361.33 1144H2012L2345.17 1478H2694.5L2361.33 1144Z" fill="white" stroke="#5B5B5B" stroke-width="4" stroke-linejoin="round"/>
<path d="M2361.33 1054H2012L2345.17 1388H2694.5L2361.33 1054Z" fill="white" stroke="#5B5B5B" stroke-width="4" stroke-linejoin="round"/>
<path d="M2361.33 964H2012L2345.17 1298H2694.5L2361.33 964Z" fill="white" stroke="#5B5B5B" stroke-width="4" stroke-linejoin="round"/>
<path d="M2361.33 874H2012L2345.17 1208H2694.5L2361.33 874Z" fill="white" stroke="#5B5B5B" stroke-width="4" stroke-linejoin="round"/>
<path d="M2361.33 784H2012L2345.17 1118H2694.5L2361.33 784Z" fill="white" stroke="#5B5B5B" stroke-width="4" stroke-linejoin="round"/>
<path d="M2361.33 694H2012L2345.17 1028H2694.5L2361.33 694Z" fill="white" stroke="#5B5B5B" stroke-width="4" stroke-linejoin="round"/>
<path d="M2361.33 604H2012L2345.17 938H2694.5L2361.33 604Z" fill="white" stroke="#5B5B5B" stroke-width="4" stroke-linejoin="round"/>
<path d="M2361.33 514H2012L2345.17 848H2694.5L2361.33 514Z" fill="url(#paint4_linear_330_723)" stroke="black" stroke-width="4" stroke-linejoin="round"/>
<path d="M2361.33 424H2012L2345.17 758H2694.5L2361.33 424Z" fill="white" stroke="black" stroke-width="4" stroke-linejoin="round"/>
<path d="M2361.33 424H2012L2345.17 758H2694.5L2361.33 424Z" fill="white" stroke="#5B5B5B" stroke-width="4" stroke-linejoin="round"/>
<path d="M2361.33 330H2012L2345.17 664H2694.5L2361.33 330Z" fill="white" stroke="#5B5B5B" stroke-width="4" stroke-linejoin="round"/>
<line x1="2360" y1="328" x2="2360" y2="235" stroke="#5B5B5B" stroke-width="4" stroke-linejoin="round"/>
<line x1="3099.03" y1="970" x2="3099.03" y2="880" stroke="black" stroke-width="3.93495" stroke-linejoin="round"/>
<path d="M2694 1679L2694 568" stroke="black" stroke-width="4" stroke-linejoin="round"/>
<path d="M2011 235L2346 570.936" stroke="#D7D7D7" stroke-width="2" stroke-linejoin="round"/>
<path d="M2011 249.936L2346 585.871" stroke="#D7D7D7" stroke-width="2" stroke-linejoin="round"/>
<path d="M2011 264.871L2346 600.807" stroke="#D7D7D7" stroke-width="2" stroke-linejoin="round"/>
<path d="M2011 279.807L2346 615.742" stroke="#D7D7D7" stroke-width="2" stroke-linejoin="round"/>
<path d="M2011 294.742L2346 630.678" stroke="#D7D7D7" stroke-width="2" stroke-linejoin="round"/>
<path d="M2011 309.678L2346 645.613" stroke="#D7D7D7" stroke-width="2" stroke-linejoin="round"/>
<path d="M2011 324.613L2346 660.549" stroke="#D7D7D7" stroke-width="2" stroke-linejoin="round"/>
<path d="M2011 339.549L2346 675.484" stroke="#D7D7D7" stroke-width="2" stroke-linejoin="round"/>
<path d="M2011 354.484L2346 690.42" stroke="#D7D7D7" stroke-width="2" stroke-linejoin="round"/>
<path d="M2011 369.42L2346 705.356" stroke="#D7D7D7" stroke-width="2" stroke-linejoin="round"/>
<path d="M2011 384.355L2346 720.291" stroke="#D7D7D7" stroke-width="2" stroke-linejoin="round"/>
<path d="M2011 399.291L2346 735.227" stroke="#D7D7D7" stroke-width="2" stroke-linejoin="round"/>
<path d="M2011 414.227L2346 750.162" stroke="#D7D7D7" stroke-width="2" stroke-linejoin="round"/>
<path d="M2011 528.936L2346 864.871" stroke="#D7D7D7" stroke-width="2" stroke-linejoin="round"/>
<path d="M2011 543.871L2346 879.807" stroke="#D7D7D7" stroke-width="2" stroke-linejoin="round"/>
<path d="M2011 558.807L2346 894.742" stroke="#D7D7D7" stroke-width="2" stroke-linejoin="round"/>
<path d="M2011 573.742L2346 909.678" stroke="#D7D7D7" stroke-width="2" stroke-linejoin="round"/>
<path d="M2011 588.678L2346 924.613" stroke="#D7D7D7" stroke-width="2" stroke-linejoin="round"/>
<path d="M2011 621.936L2346 957.871" stroke="#D7D7D7" stroke-width="2" stroke-linejoin="round"/>
<path d="M2011 636.871L2346 972.807" stroke="#D7D7D7" stroke-width="2" stroke-linejoin="round"/>
<path d="M2011 651.807L2346 987.742" stroke="#D7D7D7" stroke-width="2" stroke-linejoin="round"/>
<path d="M2011 666.742L2346 1002.68" stroke="#D7D7D7" stroke-width="2" stroke-linejoin="round"/>
<path d="M2011 681.678L2346 1017.61" stroke="#D7D7D7" stroke-width="2" stroke-linejoin="round"/>
<path d="M2011 711.549L2346 1047.48" stroke="#D7D7D7" stroke-width="2" stroke-linejoin="round"/>
<path d="M2011 726.484L2346 1062.42" stroke="#D7D7D7" stroke-width="2" stroke-linejoin="round"/>
<path d="M2011 741.42L2346 1077.36" stroke="#D7D7D7" stroke-width="2" stroke-linejoin="round"/>
<path d="M2011 756.355L2346 1092.29" stroke="#D7D7D7" stroke-width="2" stroke-linejoin="round"/>
<path d="M2011 771.291L2346 1107.23" stroke="#D7D7D7" stroke-width="2" stroke-linejoin="round"/>
<path d="M2011 800.936L2346 1136.87" stroke="#D7D7D7" stroke-width="2" stroke-linejoin="round"/>
<path d="M2011 815.871L2346 1151.81" stroke="#D7D7D7" stroke-width="2" stroke-linejoin="round"/>
<path d="M2011 830.807L2346 1166.74" stroke="#D7D7D7" stroke-width="2" stroke-linejoin="round"/>
<path d="M2011 845.742L2346 1181.68" stroke="#D7D7D7" stroke-width="2" stroke-linejoin="round"/>
<path d="M2011 860.678L2346 1196.61" stroke="#D7D7D7" stroke-width="2" stroke-linejoin="round"/>
<path d="M2011 890.549L2346 1226.48" stroke="#D7D7D7" stroke-width="2" stroke-linejoin="round"/>
<path d="M2011 905.484L2346 1241.42" stroke="#D7D7D7" stroke-width="2" stroke-linejoin="round"/>
<path d="M2011 920.42L2346 1256.36" stroke="#D7D7D7" stroke-width="2" stroke-linejoin="round"/>
<path d="M2011 935.355L2346 1271.29" stroke="#D7D7D7" stroke-width="2" stroke-linejoin="round"/>
<path d="M2011 950.291L2346 1286.23" stroke="#D7D7D7" stroke-width="2" stroke-linejoin="round"/>
<path d="M2011 978.936L2346 1314.87" stroke="#D7D7D7" stroke-width="2" stroke-linejoin="round"/>
<path d="M2011 993.871L2346 1329.81" stroke="#D7D7D7" stroke-width="2" stroke-linejoin="round"/>
<path d="M2011 1008.81L2346 1344.74" stroke="#D7D7D7" stroke-width="2" stroke-linejoin="round"/>
<path d="M2011 1023.74L2346 1359.68" stroke="#D7D7D7" stroke-width="2" stroke-linejoin="round"/>
<path d="M2011 1038.68L2346 1374.61" stroke="#D7D7D7" stroke-width="2" stroke-linejoin="round"/>
<path d="M2011 1068.55L2346 1404.48" stroke="#D7D7D7" stroke-width="2" stroke-linejoin="round"/>
<path d="M2011 1083.48L2346 1419.42" stroke="#D7D7D7" stroke-width="2" stroke-linejoin="round"/>
<path d="M2011 1098.42L2346 1434.36" stroke="#D7D7D7" stroke-width="2" stroke-linejoin="round"/>
<path d="M2011 1113.36L2346 1449.29" stroke="#D7D7D7" stroke-width="2" stroke-linejoin="round"/>
<path d="M2011 1128.29L2346 1464.23" stroke="#D7D7D7" stroke-width="2" stroke-linejoin="round"/>
<path d="M2011 1156.94L2346 1492.87" stroke="#D7D7D7" stroke-width="2" stroke-linejoin="round"/>
<path d="M2011 1171.87L2346 1507.81" stroke="#D7D7D7" stroke-width="2" stroke-linejoin="round"/>
<path d="M2011 1186.81L2346 1522.74" stroke="#D7D7D7" stroke-width="2" stroke-linejoin="round"/>
<path d="M2011 1201.74L2346 1537.68" stroke="#D7D7D7" stroke-width="2" stroke-linejoin="round"/>
<path d="M2011 1216.68L2346 1552.61" stroke="#D7D7D7" stroke-width="2" stroke-linejoin="round"/>
<path d="M2011 1231.61L2346 1567.55" stroke="#D7D7D7" stroke-width="2" stroke-linejoin="round"/>
<path d="M2011 1246.55L2346 1582.48" stroke="#D7D7D7" stroke-width="2" stroke-linejoin="round"/>
<path d="M2011 1261.48L2346 1597.42" stroke="#D7D7D7" stroke-width="2" stroke-linejoin="round"/>
<path d="M2011 1276.42L2346 1612.36" stroke="#D7D7D7" stroke-width="2" stroke-linejoin="round"/>
<path d="M2011 1291.36L2346 1627.29" stroke="#D7D7D7" stroke-width="2" stroke-linejoin="round"/>
<path d="M2011 1306.29L2346 1642.23" stroke="#D7D7D7" stroke-width="2" stroke-linejoin="round"/>
<path d="M2011 1321.23L2346 1657.16" stroke="#D7D7D7" stroke-width="2" stroke-linejoin="round"/>
<path d="M2361.33 234H2012L2345.17 568H2694.5L2361.33 234Z" stroke="black" stroke-width="4" stroke-linejoin="round"/>
<line x1="2345" y1="1679" x2="2345" y2="568" stroke="black" stroke-width="4" stroke-linejoin="round"/>
<path d="M2010 1344L2010 232" stroke="black" stroke-width="4" stroke-linecap="round" stroke-linejoin="round"/>
<rect x="1112" y="997.275" width="131.315" height="94.7244" fill="white" stroke="black" stroke-width="4"/>
<line x1="1177.04" y1="1094" x2="1177.04" y2="995.276" stroke="black" stroke-width="4"/>
<line x1="1168.06" y1="1060.17" x2="1168.06" y2="1044.98" stroke="black" stroke-width="4"/>
<line x1="1186.01" y1="1060.17" x2="1186.01" y2="1044.98" stroke="black" stroke-width="4"/>
<rect x="1243.96" y="997.275" width="131.315" height="94.7244" fill="white" stroke="black" stroke-width="4"/>
<line x1="1309" y1="1094" x2="1309" y2="995.276" stroke="black" stroke-width="4"/>
<line x1="1300.03" y1="1060.17" x2="1300.03" y2="1044.98" stroke="black" stroke-width="4"/>
<line x1="1317.98" y1="1060.17" x2="1317.98" y2="1044.98" stroke="black" stroke-width="4"/>
<path d="M2199 1532.67L2142 1475.67V1373.83L2199 1430.83V1532.67Z" fill="white" stroke="black" stroke-width="4"/>
<line x1="2169" y1="1503" x2="2169" y2="1401" stroke="black" stroke-width="4"/>
<line x1="2160" y1="1456" x2="2160" y2="1440" stroke="black" stroke-width="4"/>
<line x1="2178" y1="1468" x2="2178" y2="1452" stroke="black" stroke-width="4"/>
<path d="M2141 1474.67L2084 1417.67V1315.83L2141 1372.83V1474.67Z" fill="white" stroke="black" stroke-width="4"/>
<line x1="2111" y1="1445" x2="2111" y2="1343" stroke="black" stroke-width="4"/>
<line x1="2102" y1="1398" x2="2102" y2="1382" stroke="black" stroke-width="4"/>
<line x1="2120" y1="1410" x2="2120" y2="1394" stroke="black" stroke-width="4"/>
<line x1="3320.41" y1="1060.41" x2="3058.41" y2="1322.41" stroke="#626262" stroke-width="4"/>
<path d="M2493.49 825H2499.52V816.66H2507.2V812.73H2499.52V808.14H2510.2V804H2493.49V825ZM2512.8 825H2529.42V820.92H2518.83V804H2512.8V825ZM2540.89 825.39C2547.37 825.39 2551.42 821.46 2551.42 814.5C2551.42 807.51 2547.37 803.61 2540.89 803.61C2534.44 803.61 2530.36 807.51 2530.36 814.5C2530.36 821.46 2534.44 825.39 2540.89 825.39ZM2540.89 821.19C2538.1 821.19 2536.48 819.09 2536.48 814.53C2536.48 809.94 2538.1 807.84 2540.89 807.84C2543.68 807.84 2545.3 809.94 2545.3 814.53C2545.3 819.09 2543.68 821.19 2540.89 821.19ZM2564.21 825.39C2570.69 825.39 2574.74 821.46 2574.74 814.5C2574.74 807.51 2570.69 803.61 2564.21 803.61C2557.76 803.61 2553.68 807.51 2553.68 814.5C2553.68 821.46 2557.76 825.39 2564.21 825.39ZM2564.21 821.19C2561.42 821.19 2559.8 819.09 2559.8 814.53C2559.8 809.94 2561.42 807.84 2564.21 807.84C2567 807.84 2568.62 809.94 2568.62 814.53C2568.62 819.09 2567 821.19 2564.21 821.19ZM2577.66 825H2583.69V816.93H2588.16C2589.54 816.93 2590.08 817.5 2590.11 818.94C2590.14 822 2590.44 823.71 2590.95 825H2597.22C2596.56 823.35 2596.11 821.52 2596.02 818.76C2595.96 816.6 2595.09 815.37 2592.81 814.98C2595.18 814.2 2596.62 812.4 2596.62 809.82C2596.62 806.19 2594.07 804 2589.54 804H2577.66V825ZM2588.07 808.08C2589.63 808.08 2590.65 808.95 2590.65 810.6C2590.65 812.25 2589.63 813.12 2588.07 813.12H2583.69V808.08H2588.07ZM2609.06 825H2614.91V804H2610.08C2609.45 806.22 2607.98 807.03 2604.74 807.12V810.3H2609.06V825ZM2627.32 825.36C2633.35 825.36 2636.95 821.34 2636.95 814.47C2636.95 807.63 2633.41 803.61 2627.32 803.61C2621.29 803.61 2617.75 807.63 2617.75 814.47C2617.75 821.31 2621.35 825.36 2627.32 825.36ZM2627.35 821.25C2624.95 821.25 2623.63 819 2623.63 814.47C2623.63 810 2624.95 807.72 2627.35 807.72C2629.75 807.72 2631.07 810 2631.07 814.47C2631.07 819.03 2629.72 821.25 2627.35 821.25Z" fill="white"/>
<path d="M3238.03 1371H3244.06V1362.66H3251.74V1358.73H3244.06V1354.14H3254.74V1350H3238.03V1371ZM3257.33 1371H3273.95V1366.92H3263.36V1350H3257.33V1371ZM3285.42 1371.39C3291.9 1371.39 3295.95 1367.46 3295.95 1360.5C3295.95 1353.51 3291.9 1349.61 3285.42 1349.61C3278.97 1349.61 3274.89 1353.51 3274.89 1360.5C3274.89 1367.46 3278.97 1371.39 3285.42 1371.39ZM3285.42 1367.19C3282.63 1367.19 3281.01 1365.09 3281.01 1360.53C3281.01 1355.94 3282.63 1353.84 3285.42 1353.84C3288.21 1353.84 3289.83 1355.94 3289.83 1360.53C3289.83 1365.09 3288.21 1367.19 3285.42 1367.19ZM3308.74 1371.39C3315.22 1371.39 3319.27 1367.46 3319.27 1360.5C3319.27 1353.51 3315.22 1349.61 3308.74 1349.61C3302.29 1349.61 3298.21 1353.51 3298.21 1360.5C3298.21 1367.46 3302.29 1371.39 3308.74 1371.39ZM3308.74 1367.19C3305.95 1367.19 3304.33 1365.09 3304.33 1360.53C3304.33 1355.94 3305.95 1353.84 3308.74 1353.84C3311.53 1353.84 3313.15 1355.94 3313.15 1360.53C3313.15 1365.09 3311.53 1367.19 3308.74 1367.19ZM3322.2 1371H3328.23V1362.93H3332.7C3334.08 1362.93 3334.62 1363.5 3334.65 1364.94C3334.68 1368 3334.98 1369.71 3335.49 1371H3341.76C3341.1 1369.35 3340.65 1367.52 3340.56 1364.76C3340.5 1362.6 3339.63 1361.37 3337.35 1360.98C3339.72 1360.2 3341.16 1358.4 3341.16 1355.82C3341.16 1352.19 3338.61 1350 3334.08 1350H3322.2V1371ZM3332.61 1354.08C3334.17 1354.08 3335.19 1354.95 3335.19 1356.6C3335.19 1358.25 3334.17 1359.12 3332.61 1359.12H3328.23V1354.08H3332.61ZM3359.95 1371H3365.53V1367.01H3368.32V1363.2H3365.53V1350H3358.36L3349.15 1363.17V1367.01H3359.95V1371ZM3354.07 1363.2L3360.01 1354.56L3359.98 1363.2H3354.07Z" fill="white"/>
<path d="M1450.35 804.36C1455.48 804.36 1459.02 801.87 1459.02 798.09C1459.02 795.54 1457.55 793.8 1454.85 793.05C1457.19 792.33 1458.54 790.68 1458.54 788.43C1458.54 784.89 1455.27 782.64 1450.26 782.64C1445.04 782.64 1441.8 785.1 1441.14 789.48H1446.66C1446.93 787.56 1448.07 786.45 1449.96 786.45C1451.64 786.45 1452.78 787.47 1452.78 788.97C1452.78 790.5 1451.76 791.4 1450.05 791.4H1447.95V794.94H1450.11C1452 794.94 1453.05 795.93 1453.05 797.67C1453.05 799.47 1451.91 800.58 1450.08 800.58C1448.07 800.58 1446.81 799.23 1446.51 796.8H1440.99C1441.59 801.72 1444.89 804.36 1450.35 804.36ZM1464.99 804H1470.84V783H1466.01C1465.38 785.22 1463.91 786.03 1460.67 786.12V789.3H1464.99V804ZM1483.26 804.36C1489.29 804.36 1492.89 800.34 1492.89 793.47C1492.89 786.63 1489.35 782.61 1483.26 782.61C1477.23 782.61 1473.69 786.63 1473.69 793.47C1473.69 800.31 1477.29 804.36 1483.26 804.36ZM1483.29 800.25C1480.89 800.25 1479.57 798 1479.57 793.47C1479.57 789 1480.89 786.72 1483.29 786.72C1485.69 786.72 1487.01 789 1487.01 793.47C1487.01 798.03 1485.66 800.25 1483.29 800.25Z" fill="black"/>
<path d="M1526.4 804H1529.07V794.34H1539.15V804H1541.82V783H1539.15V792.15H1529.07V783H1526.4V804ZM1545.77 792.18H1549.07V788.88H1545.77V792.18ZM1545.77 804H1549.07V800.7H1545.77V804ZM1576.39 783H1573.69L1570.48 791.94L1567.21 801.09L1563.97 791.94L1560.79 783H1557.88L1565.59 804H1568.71L1576.39 783ZM1579.28 804H1593.38V801.81H1581.95V794.28H1590.08V792.12H1581.95V785.19H1593.38V783H1579.28V804ZM1596.98 804H1599.53V795.54L1599.32 786.69L1604.78 795.54L1610.18 804H1613.12V783H1610.6L1610.63 791.52L1610.81 800.4L1605.35 791.52L1599.89 783H1596.98V804ZM1617.92 804H1632.02V801.81H1620.59V794.28H1628.72V792.12H1620.59V785.19H1632.02V783H1617.92V804ZM1634.24 804H1649.39V801.81H1637.54L1649.6 784.86V783H1634.48V785.19H1646.36L1634.24 802.14V804ZM1653.02 804H1655.69V783H1653.02V804ZM1658.57 804H1661.27L1663.22 798.57H1672.25L1674.17 804H1677.08L1669.37 783H1666.25L1658.57 804ZM1664.48 795.06L1667.72 785.76L1670.99 795.06L1671.5 796.5H1663.97L1664.48 795.06Z" fill="black"/>
<path d="M1526.4 367H1540.5V364.81H1529.07V357.28H1537.2V355.12H1529.07V348.19H1540.5V346H1526.4V367ZM1543.26 355.18H1546.56V351.88H1543.26V355.18ZM1543.26 367H1546.56V363.7H1543.26V367ZM1557.28 367H1559.95V357.34H1570.03V367H1572.7V346H1570.03V355.15H1559.95V346H1557.28V367ZM1585.86 367.3C1591.38 367.3 1595.13 363.52 1595.13 356.5C1595.13 349.48 1591.41 345.7 1585.86 345.7C1580.37 345.7 1576.59 349.48 1576.59 356.5C1576.59 363.52 1580.4 367.3 1585.86 367.3ZM1585.86 365.08C1581.81 365.08 1579.26 362.05 1579.26 356.5C1579.26 350.92 1581.78 347.89 1585.86 347.89C1589.91 347.89 1592.46 350.95 1592.46 356.5C1592.46 362.05 1589.88 365.08 1585.86 365.08ZM1599.03 367H1601.7V357.64H1608.84C1610.7 357.64 1611.48 358.42 1611.54 360.37C1611.6 364.18 1611.96 365.68 1612.5 367H1615.38C1614.72 365.38 1614.24 363.52 1614.12 360.46C1614.03 358.24 1613.37 357.01 1611.51 356.59C1613.61 355.87 1614.93 354.13 1614.93 351.61C1614.93 347.98 1612.5 346 1608.72 346H1599.03V367ZM1608.57 348.19C1610.94 348.19 1612.32 349.48 1612.32 351.88C1612.32 354.31 1610.94 355.57 1608.57 355.57H1601.7V348.19H1608.57ZM1618.92 367H1621.59V346H1618.92V367Z" fill="black"/>
<path d="M1450.71 367.33C1455.9 367.33 1459.59 364.33 1459.59 360.07C1459.59 356.11 1456.29 353.41 1452.3 353.41C1449.78 353.41 1447.83 354.61 1446.9 356.41C1446.84 351.4 1448.43 349.27 1450.56 349.27C1451.82 349.27 1452.81 350.14 1453.32 351.82H1459.17C1458.06 347.83 1454.79 345.64 1450.56 345.64C1444.77 345.64 1441.11 349.63 1441.11 356.74C1441.11 363.73 1444.86 367.33 1450.71 367.33ZM1450.56 363.73C1448.91 363.73 1447.41 362.47 1447.41 360.13C1447.41 357.79 1448.91 356.53 1450.56 356.53C1452.21 356.53 1453.71 357.79 1453.71 360.13C1453.71 362.47 1452.21 363.73 1450.56 363.73ZM1471.28 367.36C1477.31 367.36 1480.91 363.34 1480.91 356.47C1480.91 349.63 1477.37 345.61 1471.28 345.61C1465.25 345.61 1461.71 349.63 1461.71 356.47C1461.71 363.31 1465.31 367.36 1471.28 367.36ZM1471.31 363.25C1468.91 363.25 1467.59 361 1467.59 356.47C1467.59 352 1468.91 349.72 1471.31 349.72C1473.71 349.72 1475.03 352 1475.03 356.47C1475.03 361.03 1473.68 363.25 1471.31 363.25ZM1486.94 367H1492.79V346H1487.96C1487.33 348.22 1485.86 349.03 1482.62 349.12V352.3H1486.94V367Z" fill="black"/>
<path d="M1449.87 506.33C1455.06 506.33 1458.6 503.42 1458.6 498.68C1458.6 494.39 1455.6 491.75 1451.52 491.75C1449.66 491.75 1448.04 492.35 1446.84 493.37L1447.47 488.99H1457.64V485H1443.18L1441.44 496.64H1447.11C1447.77 495.59 1448.67 494.93 1449.84 494.93C1451.61 494.93 1452.66 496.4 1452.66 498.68C1452.66 501.08 1451.64 502.58 1449.87 502.58C1448.16 502.58 1447.08 501.44 1446.84 498.89H1441.05C1441.41 503.57 1444.68 506.33 1449.87 506.33ZM1470.19 506.36C1476.22 506.36 1479.82 502.34 1479.82 495.47C1479.82 488.63 1476.28 484.61 1470.19 484.61C1464.16 484.61 1460.62 488.63 1460.62 495.47C1460.62 502.31 1464.22 506.36 1470.19 506.36ZM1470.22 502.25C1467.82 502.25 1466.5 500 1466.5 495.47C1466.5 491 1467.82 488.72 1470.22 488.72C1472.62 488.72 1473.94 491 1473.94 495.47C1473.94 500.03 1472.59 502.25 1470.22 502.25ZM1481.81 506H1498.58V502.04L1488.47 502.1C1489.88 501.08 1491.11 500.15 1492.19 499.31C1497.53 495.17 1498.73 493.28 1498.73 490.73C1498.73 487.19 1495.67 484.67 1490.96 484.67C1485.5 484.67 1482.35 487.43 1481.63 492.53H1487.15C1487.57 489.86 1488.77 488.6 1490.51 488.6C1492.04 488.6 1492.88 489.74 1492.88 491C1492.88 492.5 1492.13 493.73 1487.99 497.24C1486.43 498.53 1484.42 500.15 1481.81 502.19V506Z" fill="black"/>
<path d="M1526.4 402H1529.07V392.46H1537.08V390.3H1529.07V383.19H1540.38V381H1526.4V402ZM1542.85 390.18H1546.15V386.88H1542.85V390.18ZM1542.85 402H1546.15V398.7H1542.85V402ZM1571.81 402H1574.27V391.2H1565.57V393.39H1571.72C1571.27 397.65 1568.81 400.08 1565.24 400.08C1561.22 400.08 1558.64 397.05 1558.64 391.5C1558.64 385.92 1561.19 382.89 1565.24 382.89C1568.45 382.89 1570.82 384.9 1571.45 388.65H1574.12C1573.31 383.43 1569.89 380.7 1565.24 380.7C1559.72 380.7 1555.97 384.45 1555.97 391.5C1555.97 398.49 1559.66 402.27 1564.94 402.27C1568 402.27 1570.43 400.8 1571.81 398.04V402ZM1578.58 402H1581.25V392.64H1588.39C1590.25 392.64 1591.03 393.42 1591.09 395.37C1591.15 399.18 1591.51 400.68 1592.05 402H1594.93C1594.27 400.38 1593.79 398.52 1593.67 395.46C1593.58 393.24 1592.92 392.01 1591.06 391.59C1593.16 390.87 1594.48 389.13 1594.48 386.61C1594.48 382.98 1592.05 381 1588.27 381H1578.58V402ZM1588.12 383.19C1590.49 383.19 1591.87 384.48 1591.87 386.88C1591.87 389.31 1590.49 390.57 1588.12 390.57H1581.25V383.19H1588.12ZM1598.47 402H1601.14V381H1598.47V402ZM1605.94 402H1608.61V392.46H1616.62V390.3H1608.61V383.19H1619.92V381H1605.94V402ZM1623.23 402H1625.9V392.46H1633.91V390.3H1625.9V383.19H1637.21V381H1623.23V402ZM1640.51 402H1643.18V381H1640.51V402ZM1653.32 402H1655.99V383.19H1663.16V381H1646.09V383.19H1653.32V402ZM1666.06 402H1668.73V392.34H1678.81V402H1681.48V381H1678.81V390.15H1668.73V381H1666.06V402ZM1694.1 402.27C1698.54 402.27 1701.39 399.96 1701.39 396.21C1701.39 392.25 1697.58 391.14 1694.07 390.18C1691.07 389.37 1688.28 388.62 1688.28 386.28C1688.28 384.12 1689.99 382.89 1692.66 382.89C1695.93 382.89 1698.15 384.48 1698.81 387.87H1701.36C1700.61 383.31 1697.46 380.73 1692.66 380.73C1688.4 380.73 1685.64 382.95 1685.64 386.49C1685.64 390.48 1689.36 391.53 1692.84 392.43C1695.9 393.24 1698.75 393.96 1698.75 396.48C1698.75 398.82 1696.95 400.11 1694.04 400.11C1690.68 400.11 1688.67 398.64 1687.95 395.01H1685.31C1686.09 399.87 1689.21 402.27 1694.1 402.27Z" fill="black"/>
<path d="M1450.71 402.33C1455.9 402.33 1459.59 399.33 1459.59 395.07C1459.59 391.11 1456.29 388.41 1452.3 388.41C1449.78 388.41 1447.83 389.61 1446.9 391.41C1446.84 386.4 1448.43 384.27 1450.56 384.27C1451.82 384.27 1452.81 385.14 1453.32 386.82H1459.17C1458.06 382.83 1454.79 380.64 1450.56 380.64C1444.77 380.64 1441.11 384.63 1441.11 391.74C1441.11 398.73 1444.86 402.33 1450.71 402.33ZM1450.56 398.73C1448.91 398.73 1447.41 397.47 1447.41 395.13C1447.41 392.79 1448.91 391.53 1450.56 391.53C1452.21 391.53 1453.71 392.79 1453.71 395.13C1453.71 397.47 1452.21 398.73 1450.56 398.73ZM1461.8 402H1478.57V398.04L1468.46 398.1C1469.87 397.08 1471.1 396.15 1472.18 395.31C1477.52 391.17 1478.72 389.28 1478.72 386.73C1478.72 383.19 1475.66 380.67 1470.95 380.67C1465.49 380.67 1462.34 383.43 1461.62 388.53H1467.14C1467.56 385.86 1468.76 384.6 1470.5 384.6C1472.03 384.6 1472.87 385.74 1472.87 387C1472.87 388.5 1472.12 389.73 1467.98 393.24C1466.42 394.53 1464.41 396.15 1461.8 398.19V402ZM1490.38 402.36C1496.41 402.36 1500.01 398.34 1500.01 391.47C1500.01 384.63 1496.47 380.61 1490.38 380.61C1484.35 380.61 1480.81 384.63 1480.81 391.47C1480.81 398.31 1484.41 402.36 1490.38 402.36ZM1490.41 398.25C1488.01 398.25 1486.69 396 1486.69 391.47C1486.69 387 1488.01 384.72 1490.41 384.72C1492.81 384.72 1494.13 387 1494.13 391.47C1494.13 396.03 1492.78 398.25 1490.41 398.25Z" fill="black"/>
<path d="M1449.87 541.33C1455.06 541.33 1458.6 538.42 1458.6 533.68C1458.6 529.39 1455.6 526.75 1451.52 526.75C1449.66 526.75 1448.04 527.35 1446.84 528.37L1447.47 523.99H1457.64V520H1443.18L1441.44 531.64H1447.11C1447.77 530.59 1448.67 529.93 1449.84 529.93C1451.61 529.93 1452.66 531.4 1452.66 533.68C1452.66 536.08 1451.64 537.58 1449.87 537.58C1448.16 537.58 1447.08 536.44 1446.84 533.89H1441.05C1441.41 538.57 1444.68 541.33 1449.87 541.33ZM1470.19 541.36C1476.22 541.36 1479.82 537.34 1479.82 530.47C1479.82 523.63 1476.28 519.61 1470.19 519.61C1464.16 519.61 1460.62 523.63 1460.62 530.47C1460.62 537.31 1464.22 541.36 1470.19 541.36ZM1470.22 537.25C1467.82 537.25 1466.5 535 1466.5 530.47C1466.5 526 1467.82 523.72 1470.22 523.72C1472.62 523.72 1473.94 526 1473.94 530.47C1473.94 535.03 1472.59 537.25 1470.22 537.25ZM1491.22 541.36C1496.35 541.36 1499.89 538.87 1499.89 535.09C1499.89 532.54 1498.42 530.8 1495.72 530.05C1498.06 529.33 1499.41 527.68 1499.41 525.43C1499.41 521.89 1496.14 519.64 1491.13 519.64C1485.91 519.64 1482.67 522.1 1482.01 526.48H1487.53C1487.8 524.56 1488.94 523.45 1490.83 523.45C1492.51 523.45 1493.65 524.47 1493.65 525.97C1493.65 527.5 1492.63 528.4 1490.92 528.4H1488.82V531.94H1490.98C1492.87 531.94 1493.92 532.93 1493.92 534.67C1493.92 536.47 1492.78 537.58 1490.95 537.58C1488.94 537.58 1487.68 536.23 1487.38 533.8H1481.86C1482.46 538.72 1485.76 541.36 1491.22 541.36Z" fill="black"/>
<path d="M1526.4 506H1533.3C1539.39 506 1543.26 502.43 1543.26 495.5C1543.26 488.6 1539.51 485 1533.54 485H1526.4V506ZM1533.45 487.19C1537.86 487.19 1540.59 490.01 1540.59 495.53C1540.59 500.99 1537.83 503.81 1533.45 503.81H1529.07V487.19H1533.45ZM1546.33 494.18H1549.63V490.88H1546.33V494.18ZM1546.33 506H1549.63V502.7H1546.33V506ZM1560.36 506H1574.22V503.81H1563.03V485H1560.36V506ZM1577.52 506H1591.62V503.81H1580.19V496.28H1588.32V494.12H1580.19V487.19H1591.62V485H1577.52V506ZM1611.91 493.1C1611.25 487.64 1607.77 484.7 1602.97 484.7C1597.48 484.7 1593.73 488.48 1593.73 495.5C1593.73 502.52 1597.51 506.3 1602.97 506.3C1607.8 506.3 1611.28 503.24 1611.91 497.63H1609.33C1608.73 501.8 1606.36 504.08 1602.97 504.08C1598.98 504.08 1596.4 501.05 1596.4 495.5C1596.4 489.92 1598.95 486.89 1602.97 486.89C1606.33 486.89 1608.73 489.08 1609.33 493.1H1611.91ZM1615.76 506H1629.62V503.81H1618.43V485H1615.76V506ZM1631.15 506H1633.85L1635.8 500.57H1644.83L1646.75 506H1649.66L1641.95 485H1638.83L1631.15 506ZM1637.06 497.06L1640.3 487.76L1643.57 497.06L1644.08 498.5H1636.55L1637.06 497.06ZM1652.55 506H1655.22V485H1652.55V506ZM1660.02 506H1662.69V496.64H1669.83C1671.69 496.64 1672.47 497.42 1672.53 499.37C1672.59 503.18 1672.95 504.68 1673.49 506H1676.37C1675.71 504.38 1675.23 502.52 1675.11 499.46C1675.02 497.24 1674.36 496.01 1672.5 495.59C1674.6 494.87 1675.92 493.13 1675.92 490.61C1675.92 486.98 1673.49 485 1669.71 485H1660.02V506ZM1669.56 487.19C1671.93 487.19 1673.31 488.48 1673.31 490.88C1673.31 493.31 1671.93 494.57 1669.56 494.57H1662.69V487.19H1669.56Z" fill="black"/>
<path d="M1526.4 541H1529.07V520H1526.4V541ZM1533.03 529.18H1536.33V525.88H1533.03V529.18ZM1533.03 541H1536.33V537.7H1533.03V541ZM1547.05 541H1560.91V538.81H1549.72V520H1547.05V541ZM1571.39 541.3C1576.91 541.3 1580.66 537.52 1580.66 530.5C1580.66 523.48 1576.94 519.7 1571.39 519.7C1565.9 519.7 1562.12 523.48 1562.12 530.5C1562.12 537.52 1565.93 541.3 1571.39 541.3ZM1571.39 539.08C1567.34 539.08 1564.79 536.05 1564.79 530.5C1564.79 524.92 1567.31 521.89 1571.39 521.89C1575.44 521.89 1577.99 524.95 1577.99 530.5C1577.99 536.05 1575.41 539.08 1571.39 539.08ZM1584.55 541H1587.22V532.3H1593.58C1597.54 532.3 1600.06 530.14 1600.06 526.18C1600.06 522.16 1597.51 520 1593.55 520H1584.55V541ZM1593.49 522.19C1595.95 522.19 1597.45 523.54 1597.45 526.18C1597.45 528.82 1595.95 530.17 1593.49 530.17H1587.22V522.19H1593.49ZM1603.42 541H1617.52V538.81H1606.09V531.28H1614.22V529.12H1606.09V522.19H1617.52V520H1603.42V541ZM1619.74 541H1634.89V538.81H1623.04L1635.1 521.86V520H1619.98V522.19H1631.86L1619.74 539.14V541Z" fill="black"/>
<path d="M2826.34 778H2828.8V767.2H2820.1V769.39H2826.25C2825.8 773.65 2823.34 776.08 2819.77 776.08C2815.75 776.08 2813.17 773.05 2813.17 767.5C2813.17 761.92 2815.72 758.89 2819.77 758.89C2822.98 758.89 2825.35 760.9 2825.98 764.65H2828.65C2827.84 759.43 2824.42 756.7 2819.77 756.7C2814.25 756.7 2810.5 760.45 2810.5 767.5C2810.5 774.49 2814.19 778.27 2819.47 778.27C2822.53 778.27 2824.96 776.8 2826.34 774.04V778ZM2832.27 766.18H2835.57V762.88H2832.27V766.18ZM2832.27 778H2835.57V774.7H2832.27V778ZM2846.29 778H2848.96V768.46H2856.97V766.3H2848.96V759.19H2860.27V757H2846.29V778ZM2863.58 778H2866.25V768.64H2873.39C2875.25 768.64 2876.03 769.42 2876.09 771.37C2876.15 775.18 2876.51 776.68 2877.05 778H2879.93C2879.27 776.38 2878.79 774.52 2878.67 771.46C2878.58 769.24 2877.92 768.01 2876.06 767.59C2878.16 766.87 2879.48 765.13 2879.48 762.61C2879.48 758.98 2877.05 757 2873.27 757H2863.58V778ZM2873.12 759.19C2875.49 759.19 2876.87 760.48 2876.87 762.88C2876.87 765.31 2875.49 766.57 2873.12 766.57H2866.25V759.19H2873.12ZM2883.47 778H2886.14V757H2883.47V778ZM2890.94 778H2905.04V775.81H2893.61V768.28H2901.74V766.12H2893.61V759.19H2905.04V757H2890.94V778ZM2908.64 778H2915.54C2921.63 778 2925.5 774.43 2925.5 767.5C2925.5 760.6 2921.75 757 2915.78 757H2908.64V778ZM2915.69 759.19C2920.1 759.19 2922.83 762.01 2922.83 767.53C2922.83 772.99 2920.07 775.81 2915.69 775.81H2911.31V759.19H2915.69ZM2941.22 778.3C2943.77 778.3 2945.87 777.46 2947.7 775.57L2949.95 778H2953.28L2949.23 773.62C2950.52 771.67 2951.69 769.06 2952.8 765.67H2950.22C2949.41 768.22 2948.54 770.26 2947.61 771.85L2943.11 767.02C2946.47 764.74 2947.61 763.15 2947.61 761.05C2947.61 758.5 2945.48 756.7 2942.39 756.7C2939.3 756.7 2937.14 758.71 2937.14 761.71C2937.14 763.24 2937.83 764.89 2939.57 766.78C2936.42 768.88 2935.04 770.77 2935.04 773.08C2935.04 776.14 2937.47 778.33 2941.22 778.3ZM2941.28 765.04C2940.05 763.72 2939.6 762.7 2939.6 761.47C2939.6 759.82 2940.71 758.68 2942.39 758.68C2943.98 758.68 2945.12 759.73 2945.12 761.2C2945.12 762.61 2944.28 763.69 2941.7 765.49L2941.28 765.04ZM2937.62 772.93C2937.62 771.31 2938.7 769.93 2941.01 768.34L2946.14 773.89C2944.73 775.48 2943.11 776.23 2941.28 776.23C2939.06 776.23 2937.62 774.82 2937.62 772.93ZM2962.84 778H2965.39V767.5L2965.27 759.22L2967.97 767.5L2971.54 778H2973.88L2977.45 767.5L2980.09 759.28L2980.03 767.5V778H2982.67V757H2978.47L2975.59 765.58L2972.77 774.4L2969.95 765.58L2967.04 757H2962.84V778ZM2985.55 778H2988.25L2990.2 772.57H2999.23L3001.15 778H3004.06L2996.35 757H2993.23L2985.55 778ZM2991.46 769.06L2994.7 759.76L2997.97 769.06L2998.48 770.5H2990.95L2991.46 769.06ZM3006.96 778H3009.63V768.64H3016.77C3018.63 768.64 3019.41 769.42 3019.47 771.37C3019.53 775.18 3019.89 776.68 3020.43 778H3023.31C3022.65 776.38 3022.17 774.52 3022.05 771.46C3021.96 769.24 3021.3 768.01 3019.44 767.59C3021.54 766.87 3022.86 765.13 3022.86 762.61C3022.86 758.98 3020.43 757 3016.65 757H3006.96V778ZM3016.5 759.19C3018.87 759.19 3020.25 760.48 3020.25 762.88C3020.25 765.31 3018.87 766.57 3016.5 766.57H3009.63V759.19H3016.5ZM3026.85 778H3029.52V757H3026.85V778ZM3032.4 778H3035.1L3037.05 772.57H3046.08L3048 778H3050.91L3043.2 757H3040.08L3032.4 778ZM3038.31 769.06L3041.55 759.76L3044.82 769.06L3045.33 770.5H3037.8L3038.31 769.06ZM3053.8 778H3056.35V769.54L3056.14 760.69L3061.6 769.54L3067 778H3069.94V757H3067.42L3067.45 765.52L3067.63 774.4L3062.17 765.52L3056.71 757H3053.8V778ZM3074.75 778H3088.85V775.81H3077.42V768.28H3085.55V766.12H3077.42V759.19H3088.85V757H3074.75V778ZM3092.44 778H3095.08L3095.05 772.51L3099.22 767.47L3105.16 778H3108.16L3101.02 765.37L3107.98 757H3104.92L3095.05 768.94L3095.08 757H3092.44V778Z" fill="black"/>
<path d="M2724.07 778H2729.92V757H2725.09C2724.46 759.22 2722.99 760.03 2719.75 760.12V763.3H2724.07V778ZM2742.34 778.36C2748.37 778.36 2751.97 774.34 2751.97 767.47C2751.97 760.63 2748.43 756.61 2742.34 756.61C2736.31 756.61 2732.77 760.63 2732.77 767.47C2732.77 774.31 2736.37 778.36 2742.34 778.36ZM2742.37 774.25C2739.97 774.25 2738.65 772 2738.65 767.47C2738.65 763 2739.97 760.72 2742.37 760.72C2744.77 760.72 2746.09 763 2746.09 767.47C2746.09 772.03 2744.74 774.25 2742.37 774.25ZM2763.81 778.36C2769.84 778.36 2773.44 774.34 2773.44 767.47C2773.44 760.63 2769.9 756.61 2763.81 756.61C2757.78 756.61 2754.24 760.63 2754.24 767.47C2754.24 774.31 2757.84 778.36 2763.81 778.36ZM2763.84 774.25C2761.44 774.25 2760.12 772 2760.12 767.47C2760.12 763 2761.44 760.72 2763.84 760.72C2766.24 760.72 2767.56 763 2767.56 767.47C2767.56 772.03 2766.21 774.25 2763.84 774.25ZM2785.34 778.33C2790.53 778.33 2794.22 775.33 2794.22 771.07C2794.22 767.11 2790.92 764.41 2786.93 764.41C2784.41 764.41 2782.46 765.61 2781.53 767.41C2781.47 762.4 2783.06 760.27 2785.19 760.27C2786.45 760.27 2787.44 761.14 2787.95 762.82H2793.8C2792.69 758.83 2789.42 756.64 2785.19 756.64C2779.4 756.64 2775.74 760.63 2775.74 767.74C2775.74 774.73 2779.49 778.33 2785.34 778.33ZM2785.19 774.73C2783.54 774.73 2782.04 773.47 2782.04 771.13C2782.04 768.79 2783.54 767.53 2785.19 767.53C2786.84 767.53 2788.34 768.79 2788.34 771.13C2788.34 773.47 2786.84 774.73 2785.19 774.73Z" fill="black"/>
<path d="M2724.07 813H2729.92V792H2725.09C2724.46 794.22 2722.99 795.03 2719.75 795.12V798.3H2724.07V813ZM2742.34 813.36C2748.37 813.36 2751.97 809.34 2751.97 802.47C2751.97 795.63 2748.43 791.61 2742.34 791.61C2736.31 791.61 2732.77 795.63 2732.77 802.47C2732.77 809.31 2736.37 813.36 2742.34 813.36ZM2742.37 809.25C2739.97 809.25 2738.65 807 2738.65 802.47C2738.65 798 2739.97 795.72 2742.37 795.72C2744.77 795.72 2746.09 798 2746.09 802.47C2746.09 807.03 2744.74 809.25 2742.37 809.25ZM2758 813H2763.85V792H2759.02C2758.39 794.22 2756.92 795.03 2753.68 795.12V798.3H2758V813ZM2770.68 813H2776.53V792H2771.7C2771.07 794.22 2769.6 795.03 2766.36 795.12V798.3H2770.68V813Z" fill="black"/>
<path d="M2724.07 848H2729.92V827H2725.09C2724.46 829.22 2722.99 830.03 2719.75 830.12V833.3H2724.07V848ZM2742.34 848.36C2748.37 848.36 2751.97 844.34 2751.97 837.47C2751.97 830.63 2748.43 826.61 2742.34 826.61C2736.31 826.61 2732.77 830.63 2732.77 837.47C2732.77 844.31 2736.37 848.36 2742.34 848.36ZM2742.37 844.25C2739.97 844.25 2738.65 842 2738.65 837.47C2738.65 833 2739.97 830.72 2742.37 830.72C2744.77 830.72 2746.09 833 2746.09 837.47C2746.09 842.03 2744.74 844.25 2742.37 844.25ZM2758 848H2763.85V827H2759.02C2758.39 829.22 2756.92 830.03 2753.68 830.12V833.3H2758V848ZM2775.96 848.36C2781.09 848.36 2784.63 845.87 2784.63 842.09C2784.63 839.54 2783.16 837.8 2780.46 837.05C2782.8 836.33 2784.15 834.68 2784.15 832.43C2784.15 828.89 2780.88 826.64 2775.87 826.64C2770.65 826.64 2767.41 829.1 2766.75 833.48H2772.27C2772.54 831.56 2773.68 830.45 2775.57 830.45C2777.25 830.45 2778.39 831.47 2778.39 832.97C2778.39 834.5 2777.37 835.4 2775.66 835.4H2773.56V838.94H2775.72C2777.61 838.94 2778.66 839.93 2778.66 841.67C2778.66 843.47 2777.52 844.58 2775.69 844.58C2773.68 844.58 2772.42 843.23 2772.12 840.8H2766.6C2767.2 845.72 2770.5 848.36 2775.96 848.36Z" fill="black"/>
<path d="M2811.4 813H2820.79C2824.75 813 2827.21 810.93 2827.21 807.24C2827.21 804.63 2825.92 802.92 2823.67 802.2C2825.59 801.36 2826.7 799.74 2826.7 797.46C2826.7 793.95 2824.27 792 2820.37 792H2811.4V813ZM2820.22 794.16C2822.65 794.16 2824.09 795.39 2824.09 797.7C2824.09 800.01 2822.65 801.24 2820.22 801.24H2814.07V794.16H2820.22ZM2820.67 803.4C2823.1 803.4 2824.6 804.66 2824.6 807.12C2824.6 809.55 2823.1 810.84 2820.67 810.84H2814.07V803.4H2820.67ZM2830.04 801.18H2833.34V797.88H2830.04V801.18ZM2830.04 813H2833.34V809.7H2830.04V813ZM2844.07 813H2846.74V803.34H2856.82V813H2859.49V792H2856.82V801.15H2846.74V792H2844.07V813ZM2864.28 813H2878.38V810.81H2866.95V803.28H2875.08V801.12H2866.95V794.19H2878.38V792H2864.28V813ZM2881.98 813H2884.65V803.64H2891.79C2893.65 803.64 2894.43 804.42 2894.49 806.37C2894.55 810.18 2894.91 811.68 2895.45 813H2898.33C2897.67 811.38 2897.19 809.52 2897.07 806.46C2896.98 804.24 2896.32 803.01 2894.46 802.59C2896.56 801.87 2897.88 800.13 2897.88 797.61C2897.88 793.98 2895.45 792 2891.67 792H2881.98V813ZM2891.52 794.19C2893.89 794.19 2895.27 795.48 2895.27 797.88C2895.27 800.31 2893.89 801.57 2891.52 801.57H2884.65V794.19H2891.52ZM2900.49 813H2915.64V810.81H2903.79L2915.85 793.86V792H2900.73V794.19H2912.61L2900.49 811.14V813ZM2926.88 813.3C2932.4 813.3 2936.15 809.52 2936.15 802.5C2936.15 795.48 2932.43 791.7 2926.88 791.7C2921.39 791.7 2917.61 795.48 2917.61 802.5C2917.61 809.52 2921.42 813.3 2926.88 813.3ZM2926.88 811.08C2922.83 811.08 2920.28 808.05 2920.28 802.5C2920.28 796.92 2922.8 793.89 2926.88 793.89C2930.93 793.89 2933.48 796.95 2933.48 802.5C2933.48 808.05 2930.9 811.08 2926.88 811.08ZM2955.13 813H2957.59V802.2H2948.89V804.39H2955.04C2954.59 808.65 2952.13 811.08 2948.56 811.08C2944.54 811.08 2941.96 808.05 2941.96 802.5C2941.96 796.92 2944.51 793.89 2948.56 793.89C2951.77 793.89 2954.14 795.9 2954.77 799.65H2957.44C2956.63 794.43 2953.21 791.7 2948.56 791.7C2943.04 791.7 2939.29 795.45 2939.29 802.5C2939.29 809.49 2942.98 813.27 2948.26 813.27C2951.32 813.27 2953.75 811.8 2955.13 809.04V813Z" fill="black"/>
<path d="M2809.48 848H2812.18L2814.13 842.57H2823.16L2825.08 848H2827.99L2820.28 827H2817.16L2809.48 848ZM2815.39 839.06L2818.63 829.76L2821.9 839.06L2822.41 840.5H2814.88L2815.39 839.06ZM2830.19 836.18H2833.49V832.88H2830.19V836.18ZM2830.19 848H2833.49V844.7H2830.19V848ZM2844.21 848H2858.07V845.81H2846.88V827H2844.21V848ZM2859.61 848H2862.31L2864.26 842.57H2873.29L2875.21 848H2878.12L2870.41 827H2867.29L2859.61 848ZM2865.52 839.06L2868.76 829.76L2872.03 839.06L2872.54 840.5H2865.01L2865.52 839.06ZM2881.01 848H2883.56V837.5L2883.44 829.22L2886.14 837.5L2889.71 848H2892.05L2895.62 837.5L2898.26 829.28L2898.2 837.5V848H2900.84V827H2896.64L2893.76 835.58L2890.94 844.4L2888.12 835.58L2885.21 827H2881.01V848Z" fill="black"/>
<path d="M3551.68 1358.1C3551.02 1352.64 3547.54 1349.7 3542.74 1349.7C3537.25 1349.7 3533.5 1353.48 3533.5 1360.5C3533.5 1367.52 3537.28 1371.3 3542.74 1371.3C3547.57 1371.3 3551.05 1368.24 3551.68 1362.63H3549.1C3548.5 1366.8 3546.13 1369.08 3542.74 1369.08C3538.75 1369.08 3536.17 1366.05 3536.17 1360.5C3536.17 1354.92 3538.72 1351.89 3542.74 1351.89C3546.1 1351.89 3548.5 1354.08 3549.1 1358.1H3551.68ZM3554.68 1359.18H3557.98V1355.88H3554.68V1359.18ZM3554.68 1371H3557.98V1367.7H3554.68V1371ZM3585.99 1358.1C3585.33 1352.64 3581.85 1349.7 3577.05 1349.7C3571.56 1349.7 3567.81 1353.48 3567.81 1360.5C3567.81 1367.52 3571.59 1371.3 3577.05 1371.3C3581.88 1371.3 3585.36 1368.24 3585.99 1362.63H3583.41C3582.81 1366.8 3580.44 1369.08 3577.05 1369.08C3573.06 1369.08 3570.48 1366.05 3570.48 1360.5C3570.48 1354.92 3573.03 1351.89 3577.05 1351.89C3580.41 1351.89 3582.81 1354.08 3583.41 1358.1H3585.99ZM3589.83 1371H3592.5V1361.34H3602.58V1371H3605.25V1350H3602.58V1359.15H3592.5V1350H3589.83V1371ZM3618.41 1371.3C3623.93 1371.3 3627.68 1367.52 3627.68 1360.5C3627.68 1353.48 3623.96 1349.7 3618.41 1349.7C3612.92 1349.7 3609.14 1353.48 3609.14 1360.5C3609.14 1367.52 3612.95 1371.3 3618.41 1371.3ZM3618.41 1369.08C3614.36 1369.08 3611.81 1366.05 3611.81 1360.5C3611.81 1354.92 3614.33 1351.89 3618.41 1351.89C3622.46 1351.89 3625.01 1354.95 3625.01 1360.5C3625.01 1366.05 3622.43 1369.08 3618.41 1369.08ZM3639.23 1371.3C3643.97 1371.3 3647.21 1368.45 3647.21 1363.53V1350H3644.66V1363.53C3644.66 1367.13 3642.38 1369.05 3639.29 1369.05C3636.17 1369.05 3633.92 1367.13 3633.92 1363.53V1350H3631.28V1363.5C3631.28 1368.42 3634.55 1371.3 3639.23 1371.3ZM3663.51 1371.3C3666.06 1371.3 3668.16 1370.46 3669.99 1368.57L3672.24 1371H3675.57L3671.52 1366.62C3672.81 1364.67 3673.98 1362.06 3675.09 1358.67H3672.51C3671.7 1361.22 3670.83 1363.26 3669.9 1364.85L3665.4 1360.02C3668.76 1357.74 3669.9 1356.15 3669.9 1354.05C3669.9 1351.5 3667.77 1349.7 3664.68 1349.7C3661.59 1349.7 3659.43 1351.71 3659.43 1354.71C3659.43 1356.24 3660.12 1357.89 3661.86 1359.78C3658.71 1361.88 3657.33 1363.77 3657.33 1366.08C3657.33 1369.14 3659.76 1371.33 3663.51 1371.3ZM3663.57 1358.04C3662.34 1356.72 3661.89 1355.7 3661.89 1354.47C3661.89 1352.82 3663 1351.68 3664.68 1351.68C3666.27 1351.68 3667.41 1352.73 3667.41 1354.2C3667.41 1355.61 3666.57 1356.69 3663.99 1358.49L3663.57 1358.04ZM3659.91 1365.93C3659.91 1364.31 3660.99 1362.93 3663.3 1361.34L3668.43 1366.89C3667.02 1368.48 3665.4 1369.23 3663.57 1369.23C3661.35 1369.23 3659.91 1367.82 3659.91 1365.93ZM3568.24 1398H3582.1V1395.81H3570.91V1377H3568.24V1398ZM3585.41 1398H3588.08V1377H3585.41V1398ZM3592.88 1398H3595.43V1387.5L3595.31 1379.22L3598.01 1387.5L3601.58 1398H3603.92L3607.49 1387.5L3610.13 1379.28L3610.07 1387.5V1398H3612.71V1377H3608.51L3605.63 1385.58L3602.81 1394.4L3599.99 1385.58L3597.08 1377H3592.88V1398ZM3617.52 1398H3620.19V1389.3H3626.55C3630.51 1389.3 3633.03 1387.14 3633.03 1383.18C3633.03 1379.16 3630.48 1377 3626.52 1377H3617.52V1398ZM3626.46 1379.19C3628.92 1379.19 3630.42 1380.54 3630.42 1383.18C3630.42 1385.82 3628.92 1387.17 3626.46 1387.17H3620.19V1379.19H3626.46ZM3636.38 1398H3639.05V1388.34H3649.13V1398H3651.8V1377H3649.13V1386.15H3639.05V1377H3636.38V1398ZM3664.97 1398.3C3670.49 1398.3 3674.24 1394.52 3674.24 1387.5C3674.24 1380.48 3670.52 1376.7 3664.97 1376.7C3659.48 1376.7 3655.7 1380.48 3655.7 1387.5C3655.7 1394.52 3659.51 1398.3 3664.97 1398.3ZM3664.97 1396.08C3660.92 1396.08 3658.37 1393.05 3658.37 1387.5C3658.37 1381.92 3660.89 1378.89 3664.97 1378.89C3669.02 1378.89 3671.57 1381.95 3671.57 1387.5C3671.57 1393.05 3668.99 1396.08 3664.97 1396.08ZM3678.13 1398H3680.68V1389.54L3680.47 1380.69L3685.93 1389.54L3691.33 1398H3694.27V1377H3691.75L3691.78 1385.52L3691.96 1394.4L3686.5 1385.52L3681.04 1377H3678.13V1398ZM3714.02 1398H3716.48V1387.2H3707.78V1389.39H3713.93C3713.48 1393.65 3711.02 1396.08 3707.45 1396.08C3703.43 1396.08 3700.85 1393.05 3700.85 1387.5C3700.85 1381.92 3703.4 1378.89 3707.45 1378.89C3710.66 1378.89 3713.03 1380.9 3713.66 1384.65H3716.33C3715.52 1379.43 3712.1 1376.7 3707.45 1376.7C3701.93 1376.7 3698.18 1380.45 3698.18 1387.5C3698.18 1394.49 3701.87 1398.27 3707.15 1398.27C3710.21 1398.27 3712.64 1396.8 3714.02 1394.04V1398ZM3720.79 1398H3723.46V1389.3H3729.82C3733.78 1389.3 3736.3 1387.14 3736.3 1383.18C3736.3 1379.16 3733.75 1377 3729.79 1377H3720.79V1398ZM3729.73 1379.19C3732.19 1379.19 3733.69 1380.54 3733.69 1383.18C3733.69 1385.82 3732.19 1387.17 3729.73 1387.17H3723.46V1379.19H3729.73ZM3735.33 1398H3738.03L3739.98 1392.57H3749.01L3750.93 1398H3753.84L3746.13 1377H3743.01L3735.33 1398ZM3741.24 1389.06L3744.48 1379.76L3747.75 1389.06L3748.26 1390.5H3740.73L3741.24 1389.06ZM3756.73 1398H3759.28V1389.54L3759.07 1380.69L3764.53 1389.54L3769.93 1398H3772.87V1377H3770.35L3770.38 1385.52L3770.56 1394.4L3765.1 1385.52L3759.64 1377H3756.73V1398ZM3777.68 1398H3784.58C3790.67 1398 3794.54 1394.43 3794.54 1387.5C3794.54 1380.6 3790.79 1377 3784.82 1377H3777.68V1398ZM3784.73 1379.19C3789.14 1379.19 3791.87 1382.01 3791.87 1387.53C3791.87 1392.99 3789.11 1395.81 3784.73 1395.81H3780.35V1379.19H3784.73Z" fill="black"/>
<path d="M3469.43 1371H3475.01V1367.01H3477.8V1363.2H3475.01V1350H3467.84L3458.63 1363.17V1367.01H3469.43V1371ZM3463.55 1363.2L3469.49 1354.56L3469.46 1363.2H3463.55ZM3489.13 1371.36C3495.16 1371.36 3498.76 1367.34 3498.76 1360.47C3498.76 1353.63 3495.22 1349.61 3489.13 1349.61C3483.1 1349.61 3479.56 1353.63 3479.56 1360.47C3479.56 1367.31 3483.16 1371.36 3489.13 1371.36ZM3489.16 1367.25C3486.76 1367.25 3485.44 1365 3485.44 1360.47C3485.44 1356 3486.76 1353.72 3489.16 1353.72C3491.56 1353.72 3492.88 1356 3492.88 1360.47C3492.88 1365.03 3491.53 1367.25 3489.16 1367.25ZM3510.6 1371.36C3516.63 1371.36 3520.23 1367.34 3520.23 1360.47C3520.23 1353.63 3516.69 1349.61 3510.6 1349.61C3504.57 1349.61 3501.03 1353.63 3501.03 1360.47C3501.03 1367.31 3504.63 1371.36 3510.6 1371.36ZM3510.63 1367.25C3508.23 1367.25 3506.91 1365 3506.91 1360.47C3506.91 1356 3508.23 1353.72 3510.63 1353.72C3513.03 1353.72 3514.35 1356 3514.35 1360.47C3514.35 1365.03 3513 1367.25 3510.63 1367.25Z" fill="black"/>
<path d="M186.79 1342H195.835V1329.49H207.355V1323.59H195.835V1316.71H211.855V1310.5H186.79V1342ZM215.75 1342H224.84V1310.5H215.75V1342ZM230.428 1342H239.473V1329.49H250.993V1323.59H239.473V1316.71H255.493V1310.5H230.428V1342ZM267.889 1342H276.889V1316.71H287.284V1310.5H257.404V1316.71H267.889V1342ZM290.765 1342H299.81V1329.04H310.34V1342H319.385V1310.5H310.34V1322.87H299.81V1310.5H290.765V1342ZM331.754 1342H340.349L342.374 1335.92H353.804L355.784 1342H364.919L353.354 1310.5H343.364L331.754 1342ZM344.264 1330.34L348.134 1318.6L351.959 1330.34L352.004 1330.44H344.219L344.264 1330.34ZM393.132 1310.5H384.222L380.532 1321.75L376.797 1333.09L373.017 1321.75L369.237 1310.5H359.967L371.577 1342H381.567L393.132 1310.5ZM396.365 1342H421.565V1335.88H405.365V1328.99H417.065V1323.19H405.365V1316.66H421.565V1310.5H396.365V1342Z" fill="black"/>
<line x1="1126" y1="136" x2="1126" y2="2" stroke="black" stroke-width="4"/>
<line x1="1415" y1="1093" x2="1415" y2="289" stroke="black" stroke-width="4"/>
<line x1="206" y1="806" x2="206" y2="8.74228e-08" stroke="black" stroke-width="4"/>
<path d="M2942.5 1654H2947.84V1642.69H2937.76V1645.96H2942.23C2941.69 1648.96 2940.1 1650.37 2937.79 1650.37C2934.97 1650.37 2933.17 1648.21 2933.17 1643.62C2933.17 1638.94 2934.88 1636.84 2937.73 1636.84C2939.74 1636.84 2941.24 1638.01 2941.78 1640.5H2947.66C2946.73 1635.4 2943.01 1632.61 2937.58 1632.61C2931.19 1632.61 2927.05 1636.27 2927.05 1643.56C2927.05 1650.43 2930.68 1654.33 2936.08 1654.33C2938.87 1654.33 2941.06 1653.1 2942.47 1650.85L2942.5 1654ZM2951.21 1654H2957.24V1645.93H2961.71C2963.09 1645.93 2963.63 1646.5 2963.66 1647.94C2963.69 1651 2963.99 1652.71 2964.5 1654H2970.77C2970.11 1652.35 2969.66 1650.52 2969.57 1647.76C2969.51 1645.6 2968.64 1644.37 2966.36 1643.98C2968.73 1643.2 2970.17 1641.4 2970.17 1638.82C2970.17 1635.19 2967.62 1633 2963.09 1633H2951.21V1654ZM2961.62 1637.08C2963.18 1637.08 2964.2 1637.95 2964.2 1639.6C2964.2 1641.25 2963.18 1642.12 2961.62 1642.12H2957.24V1637.08H2961.62ZM2982.84 1654.39C2989.32 1654.39 2993.37 1650.46 2993.37 1643.5C2993.37 1636.51 2989.32 1632.61 2982.84 1632.61C2976.39 1632.61 2972.31 1636.51 2972.31 1643.5C2972.31 1650.46 2976.39 1654.39 2982.84 1654.39ZM2982.84 1650.19C2980.05 1650.19 2978.43 1648.09 2978.43 1643.53C2978.43 1638.94 2980.05 1636.84 2982.84 1636.84C2985.63 1636.84 2987.25 1638.94 2987.25 1643.53C2987.25 1648.09 2985.63 1650.19 2982.84 1650.19ZM3005.39 1654.39C3011.3 1654.39 3014.78 1651.39 3014.78 1646.02V1633H3008.99V1646.32C3008.99 1648.78 3007.61 1650.07 3005.57 1650.07C3003.47 1650.07 3002.12 1648.75 3002.12 1646.29V1633H2996.06V1645.99C2996.06 1651.36 2999.57 1654.39 3005.39 1654.39ZM3018.3 1654H3023.37L3023.34 1647.46L3023.28 1640.86L3027.33 1647.46L3031.38 1654H3037.38V1633H3032.31L3032.34 1639.54L3032.4 1646.17L3028.35 1639.54L3024.3 1633H3018.3V1654ZM3041.09 1654H3050.03C3056.36 1654 3060.98 1650.58 3060.98 1643.53C3060.98 1636.45 3056.42 1633 3050.24 1633H3041.09V1654ZM3049.46 1637.2C3052.94 1637.2 3054.89 1639.12 3054.89 1643.56C3054.89 1647.94 3052.88 1649.83 3049.46 1649.83H3047.12V1637.2H3049.46ZM3070.01 1654H3076.04V1645.66H3083.72V1641.73H3076.04V1637.14H3086.72V1633H3070.01V1654ZM3089.32 1654H3105.94V1649.92H3095.35V1633H3089.32V1654ZM3117.4 1654.39C3123.88 1654.39 3127.93 1650.46 3127.93 1643.5C3127.93 1636.51 3123.88 1632.61 3117.4 1632.61C3110.95 1632.61 3106.87 1636.51 3106.87 1643.5C3106.87 1650.46 3110.95 1654.39 3117.4 1654.39ZM3117.4 1650.19C3114.61 1650.19 3112.99 1648.09 3112.99 1643.53C3112.99 1638.94 3114.61 1636.84 3117.4 1636.84C3120.19 1636.84 3121.81 1638.94 3121.81 1643.53C3121.81 1648.09 3120.19 1650.19 3117.4 1650.19ZM3140.72 1654.39C3147.2 1654.39 3151.25 1650.46 3151.25 1643.5C3151.25 1636.51 3147.2 1632.61 3140.72 1632.61C3134.27 1632.61 3130.19 1636.51 3130.19 1643.5C3130.19 1650.46 3134.27 1654.39 3140.72 1654.39ZM3140.72 1650.19C3137.93 1650.19 3136.31 1648.09 3136.31 1643.53C3136.31 1638.94 3137.93 1636.84 3140.72 1636.84C3143.51 1636.84 3145.13 1638.94 3145.13 1643.53C3145.13 1648.09 3143.51 1650.19 3140.72 1650.19ZM3154.18 1654H3160.21V1645.93H3164.68C3166.06 1645.93 3166.6 1646.5 3166.63 1647.94C3166.66 1651 3166.96 1652.71 3167.47 1654H3173.74C3173.08 1652.35 3172.63 1650.52 3172.54 1647.76C3172.48 1645.6 3171.61 1644.37 3169.33 1643.98C3171.7 1643.2 3173.14 1641.4 3173.14 1638.82C3173.14 1635.19 3170.59 1633 3166.06 1633H3154.18V1654ZM3164.59 1637.08C3166.15 1637.08 3167.17 1637.95 3167.17 1639.6C3167.17 1641.25 3166.15 1642.12 3164.59 1642.12H3160.21V1637.08H3164.59Z" fill="black"/>
<path d="M2378.5 1658H2383.84V1646.69H2373.76V1649.96H2378.23C2377.69 1652.96 2376.1 1654.37 2373.79 1654.37C2370.97 1654.37 2369.17 1652.21 2369.17 1647.62C2369.17 1642.94 2370.88 1640.84 2373.73 1640.84C2375.74 1640.84 2377.24 1642.01 2377.78 1644.5H2383.66C2382.73 1639.4 2379.01 1636.61 2373.58 1636.61C2367.19 1636.61 2363.05 1640.27 2363.05 1647.56C2363.05 1654.43 2366.68 1658.33 2372.08 1658.33C2374.87 1658.33 2377.06 1657.1 2378.47 1654.85L2378.5 1658ZM2387.21 1658H2393.24V1649.93H2397.71C2399.09 1649.93 2399.63 1650.5 2399.66 1651.94C2399.69 1655 2399.99 1656.71 2400.5 1658H2406.77C2406.11 1656.35 2405.66 1654.52 2405.57 1651.76C2405.51 1649.6 2404.64 1648.37 2402.36 1647.98C2404.73 1647.2 2406.17 1645.4 2406.17 1642.82C2406.17 1639.19 2403.62 1637 2399.09 1637H2387.21V1658ZM2397.62 1641.08C2399.18 1641.08 2400.2 1641.95 2400.2 1643.6C2400.2 1645.25 2399.18 1646.12 2397.62 1646.12H2393.24V1641.08H2397.62ZM2418.84 1658.39C2425.32 1658.39 2429.37 1654.46 2429.37 1647.5C2429.37 1640.51 2425.32 1636.61 2418.84 1636.61C2412.39 1636.61 2408.31 1640.51 2408.31 1647.5C2408.31 1654.46 2412.39 1658.39 2418.84 1658.39ZM2418.84 1654.19C2416.05 1654.19 2414.43 1652.09 2414.43 1647.53C2414.43 1642.94 2416.05 1640.84 2418.84 1640.84C2421.63 1640.84 2423.25 1642.94 2423.25 1647.53C2423.25 1652.09 2421.63 1654.19 2418.84 1654.19ZM2441.39 1658.39C2447.3 1658.39 2450.78 1655.39 2450.78 1650.02V1637H2444.99V1650.32C2444.99 1652.78 2443.61 1654.07 2441.57 1654.07C2439.47 1654.07 2438.12 1652.75 2438.12 1650.29V1637H2432.06V1649.99C2432.06 1655.36 2435.57 1658.39 2441.39 1658.39ZM2454.3 1658H2459.37L2459.34 1651.46L2459.28 1644.86L2463.33 1651.46L2467.38 1658H2473.38V1637H2468.31L2468.34 1643.54L2468.4 1650.17L2464.35 1643.54L2460.3 1637H2454.3V1658ZM2477.09 1658H2486.03C2492.36 1658 2496.98 1654.58 2496.98 1647.53C2496.98 1640.45 2492.42 1637 2486.24 1637H2477.09V1658ZM2485.46 1641.2C2488.94 1641.2 2490.89 1643.12 2490.89 1647.56C2490.89 1651.94 2488.88 1653.83 2485.46 1653.83H2483.12V1641.2H2485.46ZM2506.01 1658H2512.04V1649.66H2519.72V1645.73H2512.04V1641.14H2522.72V1637H2506.01V1658ZM2525.32 1658H2541.94V1653.92H2531.35V1637H2525.32V1658ZM2553.4 1658.39C2559.88 1658.39 2563.93 1654.46 2563.93 1647.5C2563.93 1640.51 2559.88 1636.61 2553.4 1636.61C2546.95 1636.61 2542.87 1640.51 2542.87 1647.5C2542.87 1654.46 2546.95 1658.39 2553.4 1658.39ZM2553.4 1654.19C2550.61 1654.19 2548.99 1652.09 2548.99 1647.53C2548.99 1642.94 2550.61 1640.84 2553.4 1640.84C2556.19 1640.84 2557.81 1642.94 2557.81 1647.53C2557.81 1652.09 2556.19 1654.19 2553.4 1654.19ZM2576.72 1658.39C2583.2 1658.39 2587.25 1654.46 2587.25 1647.5C2587.25 1640.51 2583.2 1636.61 2576.72 1636.61C2570.27 1636.61 2566.19 1640.51 2566.19 1647.5C2566.19 1654.46 2570.27 1658.39 2576.72 1658.39ZM2576.72 1654.19C2573.93 1654.19 2572.31 1652.09 2572.31 1647.53C2572.31 1642.94 2573.93 1640.84 2576.72 1640.84C2579.51 1640.84 2581.13 1642.94 2581.13 1647.53C2581.13 1652.09 2579.51 1654.19 2576.72 1654.19ZM2590.18 1658H2596.21V1649.93H2600.68C2602.06 1649.93 2602.6 1650.5 2602.63 1651.94C2602.66 1655 2602.96 1656.71 2603.47 1658H2609.74C2609.08 1656.35 2608.63 1654.52 2608.54 1651.76C2608.48 1649.6 2607.61 1648.37 2605.33 1647.98C2607.7 1647.2 2609.14 1645.4 2609.14 1642.82C2609.14 1639.19 2606.59 1637 2602.06 1637H2590.18V1658ZM2600.59 1641.08C2602.15 1641.08 2603.17 1641.95 2603.17 1643.6C2603.17 1645.25 2602.15 1646.12 2600.59 1646.12H2596.21V1641.08H2600.59Z" fill="black"/>
<line x1="495" y1="1093" x2="495" y2="289" stroke="black" stroke-width="4"/>
<path d="M2819.71 1588.71C2820.1 1588.32 2820.1 1587.68 2819.71 1587.29L2813.35 1580.93C2812.96 1580.54 2812.33 1580.54 2811.93 1580.93C2811.54 1581.32 2811.54 1581.95 2811.93 1582.34L2817.59 1588L2811.93 1593.66C2811.54 1594.05 2811.54 1594.68 2811.93 1595.07C2812.33 1595.46 2812.96 1595.46 2813.35 1595.07L2819.71 1588.71ZM2629.29 1587.29C2628.9 1587.68 2628.9 1588.32 2629.29 1588.71L2635.65 1595.07C2636.04 1595.46 2636.68 1595.46 2637.07 1595.07C2637.46 1594.68 2637.46 1594.05 2637.07 1593.66L2631.41 1588L2637.07 1582.34C2637.46 1581.95 2637.46 1581.32 2637.07 1580.93C2636.68 1580.54 2636.04 1580.54 2635.65 1580.93L2629.29 1587.29ZM2819.01 1587H2630V1589H2819.01V1587Z" fill="#414141"/>
<defs>
<linearGradient id="paint0_linear_330_723" x1="811" y1="538" x2="811" y2="1006.5" gradientUnits="userSpaceOnUse">
<stop stop-color="#4B4B4B"/>
<stop offset="1" stop-color="#D0D0D0"/>
</linearGradient>
<linearGradient id="paint1_linear_330_723" x1="811" y1="270" x2="811" y2="738.5" gradientUnits="userSpaceOnUse">
<stop stop-color="#3F3F3F"/>
<stop offset="1" stop-color="#D0D0D0"/>
</linearGradient>
<linearGradient id="paint2_linear_330_723" x1="811" y1="136" x2="811" y2="604.5" gradientUnits="userSpaceOnUse">
<stop stop-color="#353535"/>
<stop offset="1" stop-color="#D0D0D0"/>
</linearGradient>
<linearGradient id="paint3_linear_330_723" x1="3002.5" y1="1058" x2="3002.5" y2="1603.22" gradientUnits="userSpaceOnUse">
<stop stop-color="#151515"/>
<stop offset="1" stop-color="#D0D0D0"/>
</linearGradient>
<linearGradient id="paint4_linear_330_723" x1="2353.25" y1="514" x2="2353.25" y2="1059.22" gradientUnits="userSpaceOnUse">
<stop stop-color="#444444"/>
<stop offset="1" stop-color="#D0D0D0"/>
</linearGradient>
</defs>
</svg>
